<?xml version="1.0" encoding="utf-8"?>
<svg xmlns="http://www.w3.org/2000/svg" xmlns:xlink="http://www.w3.org/1999/xlink" width="1200" height="800" viewBox="0 0 4800 3200">
<defs>
  <clipPath id="clip980">
    <rect x="0" y="0" width="4800" height="3200"/>
  </clipPath>
</defs>
<path clip-path="url(#clip980)" d="M0 3200 L4800 3200 L4800 1.77636e-13 L0 1.77636e-13  Z" fill="#ffffff" fill-rule="evenodd" fill-opacity="1"/>
<defs>
  <clipPath id="clip981">
    <rect x="2696" y="1723" width="2057" height="1285"/>
  </clipPath>
</defs>
<path clip-path="url(#clip980)" d="M296.297 3007.18 L4752.76 3007.18 L4752.76 123.472 L296.297 123.472  Z" fill="#ffffff" fill-rule="evenodd" fill-opacity="1"/>
<defs>
  <clipPath id="clip982">
    <rect x="296" y="123" width="4457" height="2885"/>
  </clipPath>
</defs>
<polyline clip-path="url(#clip982)" style="stroke:#000000; stroke-linecap:round; stroke-linejoin:round; stroke-width:2; stroke-opacity:0.1; fill:none" points="422.423,3007.18 422.423,123.472 "/>
<polyline clip-path="url(#clip982)" style="stroke:#000000; stroke-linecap:round; stroke-linejoin:round; stroke-width:2; stroke-opacity:0.1; fill:none" points="1298.3,3007.18 1298.3,123.472 "/>
<polyline clip-path="url(#clip982)" style="stroke:#000000; stroke-linecap:round; stroke-linejoin:round; stroke-width:2; stroke-opacity:0.1; fill:none" points="2174.18,3007.18 2174.18,123.472 "/>
<polyline clip-path="url(#clip982)" style="stroke:#000000; stroke-linecap:round; stroke-linejoin:round; stroke-width:2; stroke-opacity:0.1; fill:none" points="3050.05,3007.18 3050.05,123.472 "/>
<polyline clip-path="url(#clip982)" style="stroke:#000000; stroke-linecap:round; stroke-linejoin:round; stroke-width:2; stroke-opacity:0.1; fill:none" points="3925.93,3007.18 3925.93,123.472 "/>
<polyline clip-path="url(#clip982)" style="stroke:#000000; stroke-linecap:round; stroke-linejoin:round; stroke-width:2; stroke-opacity:0.1; fill:none" points="296.297,2653.31 4752.76,2653.31 "/>
<polyline clip-path="url(#clip982)" style="stroke:#000000; stroke-linecap:round; stroke-linejoin:round; stroke-width:2; stroke-opacity:0.1; fill:none" points="296.297,2118.81 4752.76,2118.81 "/>
<polyline clip-path="url(#clip982)" style="stroke:#000000; stroke-linecap:round; stroke-linejoin:round; stroke-width:2; stroke-opacity:0.1; fill:none" points="296.297,1584.31 4752.76,1584.31 "/>
<polyline clip-path="url(#clip982)" style="stroke:#000000; stroke-linecap:round; stroke-linejoin:round; stroke-width:2; stroke-opacity:0.1; fill:none" points="296.297,1049.81 4752.76,1049.81 "/>
<polyline clip-path="url(#clip982)" style="stroke:#000000; stroke-linecap:round; stroke-linejoin:round; stroke-width:2; stroke-opacity:0.1; fill:none" points="296.297,515.314 4752.76,515.314 "/>
<polyline clip-path="url(#clip980)" style="stroke:#000000; stroke-linecap:round; stroke-linejoin:round; stroke-width:4; stroke-opacity:1; fill:none" points="296.297,3007.18 4752.76,3007.18 "/>
<polyline clip-path="url(#clip980)" style="stroke:#000000; stroke-linecap:round; stroke-linejoin:round; stroke-width:4; stroke-opacity:1; fill:none" points="422.423,3007.18 422.423,2988.28 "/>
<polyline clip-path="url(#clip980)" style="stroke:#000000; stroke-linecap:round; stroke-linejoin:round; stroke-width:4; stroke-opacity:1; fill:none" points="1298.3,3007.18 1298.3,2988.28 "/>
<polyline clip-path="url(#clip980)" style="stroke:#000000; stroke-linecap:round; stroke-linejoin:round; stroke-width:4; stroke-opacity:1; fill:none" points="2174.18,3007.18 2174.18,2988.28 "/>
<polyline clip-path="url(#clip980)" style="stroke:#000000; stroke-linecap:round; stroke-linejoin:round; stroke-width:4; stroke-opacity:1; fill:none" points="3050.05,3007.18 3050.05,2988.28 "/>
<polyline clip-path="url(#clip980)" style="stroke:#000000; stroke-linecap:round; stroke-linejoin:round; stroke-width:4; stroke-opacity:1; fill:none" points="3925.93,3007.18 3925.93,2988.28 "/>
<path clip-path="url(#clip980)" d="M399.807 3057.3 Q396.196 3057.3 394.367 3060.86 Q392.562 3064.4 392.562 3071.53 Q392.562 3078.64 394.367 3082.21 Q396.196 3085.75 399.807 3085.75 Q403.441 3085.75 405.247 3082.21 Q407.076 3078.64 407.076 3071.53 Q407.076 3064.4 405.247 3060.86 Q403.441 3057.3 399.807 3057.3 M399.807 3053.59 Q405.617 3053.59 408.673 3058.2 Q411.752 3062.78 411.752 3071.53 Q411.752 3080.26 408.673 3084.87 Q405.617 3089.45 399.807 3089.45 Q393.997 3089.45 390.918 3084.87 Q387.863 3080.26 387.863 3071.53 Q387.863 3062.78 390.918 3058.2 Q393.997 3053.59 399.807 3053.59 Z" fill="#000000" fill-rule="nonzero" fill-opacity="1" /><path clip-path="url(#clip980)" d="M419.969 3082.9 L424.853 3082.9 L424.853 3088.78 L419.969 3088.78 L419.969 3082.9 Z" fill="#000000" fill-rule="nonzero" fill-opacity="1" /><path clip-path="url(#clip980)" d="M445.038 3057.3 Q441.427 3057.3 439.599 3060.86 Q437.793 3064.4 437.793 3071.53 Q437.793 3078.64 439.599 3082.21 Q441.427 3085.75 445.038 3085.75 Q448.673 3085.75 450.478 3082.21 Q452.307 3078.64 452.307 3071.53 Q452.307 3064.4 450.478 3060.86 Q448.673 3057.3 445.038 3057.3 M445.038 3053.59 Q450.849 3053.59 453.904 3058.2 Q456.983 3062.78 456.983 3071.53 Q456.983 3080.26 453.904 3084.87 Q450.849 3089.45 445.038 3089.45 Q439.228 3089.45 436.15 3084.87 Q433.094 3080.26 433.094 3071.53 Q433.094 3062.78 436.15 3058.2 Q439.228 3053.59 445.038 3053.59 Z" fill="#000000" fill-rule="nonzero" fill-opacity="1" /><path clip-path="url(#clip980)" d="M1270.04 3084.84 L1286.35 3084.84 L1286.35 3088.78 L1264.41 3088.78 L1264.41 3084.84 Q1267.07 3082.09 1271.66 3077.46 Q1276.26 3072.81 1277.44 3071.47 Q1279.69 3068.94 1280.57 3067.21 Q1281.47 3065.45 1281.47 3063.76 Q1281.47 3061 1279.53 3059.27 Q1277.6 3057.53 1274.5 3057.53 Q1272.3 3057.53 1269.85 3058.29 Q1267.42 3059.06 1264.64 3060.61 L1264.64 3055.89 Q1267.47 3054.75 1269.92 3054.17 Q1272.37 3053.59 1274.41 3053.59 Q1279.78 3053.59 1282.98 3056.28 Q1286.17 3058.97 1286.17 3063.46 Q1286.17 3065.59 1285.36 3067.51 Q1284.57 3069.4 1282.47 3072 Q1281.89 3072.67 1278.79 3075.89 Q1275.68 3079.08 1270.04 3084.84 Z" fill="#000000" fill-rule="nonzero" fill-opacity="1" /><path clip-path="url(#clip980)" d="M1296.17 3082.9 L1301.05 3082.9 L1301.05 3088.78 L1296.17 3088.78 L1296.17 3082.9 Z" fill="#000000" fill-rule="nonzero" fill-opacity="1" /><path clip-path="url(#clip980)" d="M1311.29 3054.22 L1329.64 3054.22 L1329.64 3058.16 L1315.57 3058.16 L1315.57 3066.63 Q1316.59 3066.28 1317.6 3066.12 Q1318.62 3065.93 1319.64 3065.93 Q1325.43 3065.93 1328.81 3069.1 Q1332.19 3072.28 1332.19 3077.69 Q1332.19 3083.27 1328.72 3086.37 Q1325.24 3089.45 1318.92 3089.45 Q1316.75 3089.45 1314.48 3089.08 Q1312.23 3088.71 1309.83 3087.97 L1309.83 3083.27 Q1311.91 3084.4 1314.13 3084.96 Q1316.35 3085.52 1318.83 3085.52 Q1322.84 3085.52 1325.17 3083.41 Q1327.51 3081.3 1327.51 3077.69 Q1327.51 3074.08 1325.17 3071.97 Q1322.84 3069.87 1318.83 3069.87 Q1316.96 3069.87 1315.08 3070.28 Q1313.23 3070.7 1311.29 3071.58 L1311.29 3054.22 Z" fill="#000000" fill-rule="nonzero" fill-opacity="1" /><path clip-path="url(#clip980)" d="M2141.34 3054.22 L2159.7 3054.22 L2159.7 3058.16 L2145.62 3058.16 L2145.62 3066.63 Q2146.64 3066.28 2147.66 3066.12 Q2148.68 3065.93 2149.7 3065.93 Q2155.48 3065.93 2158.86 3069.1 Q2162.24 3072.28 2162.24 3077.69 Q2162.24 3083.27 2158.77 3086.37 Q2155.3 3089.45 2148.98 3089.45 Q2146.8 3089.45 2144.53 3089.08 Q2142.29 3088.71 2139.88 3087.97 L2139.88 3083.27 Q2141.97 3084.4 2144.19 3084.96 Q2146.41 3085.52 2148.89 3085.52 Q2152.89 3085.52 2155.23 3083.41 Q2157.57 3081.3 2157.57 3077.69 Q2157.57 3074.08 2155.23 3071.97 Q2152.89 3069.87 2148.89 3069.87 Q2147.01 3069.87 2145.14 3070.28 Q2143.28 3070.7 2141.34 3071.58 L2141.34 3054.22 Z" fill="#000000" fill-rule="nonzero" fill-opacity="1" /><path clip-path="url(#clip980)" d="M2171.46 3082.9 L2176.34 3082.9 L2176.34 3088.78 L2171.46 3088.78 L2171.46 3082.9 Z" fill="#000000" fill-rule="nonzero" fill-opacity="1" /><path clip-path="url(#clip980)" d="M2196.53 3057.3 Q2192.91 3057.3 2191.09 3060.86 Q2189.28 3064.4 2189.28 3071.53 Q2189.28 3078.64 2191.09 3082.21 Q2192.91 3085.75 2196.53 3085.75 Q2200.16 3085.75 2201.96 3082.21 Q2203.79 3078.64 2203.79 3071.53 Q2203.79 3064.4 2201.96 3060.86 Q2200.16 3057.3 2196.53 3057.3 M2196.53 3053.59 Q2202.34 3053.59 2205.39 3058.2 Q2208.47 3062.78 2208.47 3071.53 Q2208.47 3080.26 2205.39 3084.87 Q2202.34 3089.45 2196.53 3089.45 Q2190.71 3089.45 2187.64 3084.87 Q2184.58 3080.26 2184.58 3071.53 Q2184.58 3062.78 2187.64 3058.2 Q2190.71 3053.59 2196.53 3053.59 Z" fill="#000000" fill-rule="nonzero" fill-opacity="1" /><path clip-path="url(#clip980)" d="M3016.37 3054.22 L3038.59 3054.22 L3038.59 3056.21 L3026.05 3088.78 L3021.16 3088.78 L3032.97 3058.16 L3016.37 3058.16 L3016.37 3054.22 Z" fill="#000000" fill-rule="nonzero" fill-opacity="1" /><path clip-path="url(#clip980)" d="M3047.71 3082.9 L3052.6 3082.9 L3052.6 3088.78 L3047.71 3088.78 L3047.71 3082.9 Z" fill="#000000" fill-rule="nonzero" fill-opacity="1" /><path clip-path="url(#clip980)" d="M3062.83 3054.22 L3081.19 3054.22 L3081.19 3058.16 L3067.11 3058.16 L3067.11 3066.63 Q3068.13 3066.28 3069.15 3066.12 Q3070.17 3065.93 3071.19 3065.93 Q3076.97 3065.93 3080.35 3069.1 Q3083.73 3072.28 3083.73 3077.69 Q3083.73 3083.27 3080.26 3086.37 Q3076.79 3089.45 3070.47 3089.45 Q3068.29 3089.45 3066.02 3089.08 Q3063.78 3088.71 3061.37 3087.97 L3061.37 3083.27 Q3063.45 3084.4 3065.68 3084.96 Q3067.9 3085.52 3070.38 3085.52 Q3074.38 3085.52 3076.72 3083.41 Q3079.06 3081.3 3079.06 3077.69 Q3079.06 3074.08 3076.72 3071.97 Q3074.38 3069.87 3070.38 3069.87 Q3068.5 3069.87 3066.63 3070.28 Q3064.77 3070.7 3062.83 3071.58 L3062.83 3054.22 Z" fill="#000000" fill-rule="nonzero" fill-opacity="1" /><path clip-path="url(#clip980)" d="M3878 3084.84 L3885.64 3084.84 L3885.64 3058.48 L3877.33 3060.15 L3877.33 3055.89 L3885.59 3054.22 L3890.27 3054.22 L3890.27 3084.84 L3897.91 3084.84 L3897.91 3088.78 L3878 3088.78 L3878 3084.84 Z" fill="#000000" fill-rule="nonzero" fill-opacity="1" /><path clip-path="url(#clip980)" d="M3917.35 3057.3 Q3913.74 3057.3 3911.91 3060.86 Q3910.11 3064.4 3910.11 3071.53 Q3910.11 3078.64 3911.91 3082.21 Q3913.74 3085.75 3917.35 3085.75 Q3920.99 3085.75 3922.79 3082.21 Q3924.62 3078.64 3924.62 3071.53 Q3924.62 3064.4 3922.79 3060.86 Q3920.99 3057.3 3917.35 3057.3 M3917.35 3053.59 Q3923.16 3053.59 3926.22 3058.2 Q3929.3 3062.78 3929.3 3071.53 Q3929.3 3080.26 3926.22 3084.87 Q3923.16 3089.45 3917.35 3089.45 Q3911.54 3089.45 3908.46 3084.87 Q3905.41 3080.26 3905.41 3071.53 Q3905.41 3062.78 3908.46 3058.2 Q3911.54 3053.59 3917.35 3053.59 Z" fill="#000000" fill-rule="nonzero" fill-opacity="1" /><path clip-path="url(#clip980)" d="M3937.51 3082.9 L3942.4 3082.9 L3942.4 3088.78 L3937.51 3088.78 L3937.51 3082.9 Z" fill="#000000" fill-rule="nonzero" fill-opacity="1" /><path clip-path="url(#clip980)" d="M3962.58 3057.3 Q3958.97 3057.3 3957.14 3060.86 Q3955.34 3064.4 3955.34 3071.53 Q3955.34 3078.64 3957.14 3082.21 Q3958.97 3085.75 3962.58 3085.75 Q3966.22 3085.75 3968.02 3082.21 Q3969.85 3078.64 3969.85 3071.53 Q3969.85 3064.4 3968.02 3060.86 Q3966.22 3057.3 3962.58 3057.3 M3962.58 3053.59 Q3968.39 3053.59 3971.45 3058.2 Q3974.53 3062.78 3974.53 3071.53 Q3974.53 3080.26 3971.45 3084.87 Q3968.39 3089.45 3962.58 3089.45 Q3956.77 3089.45 3953.69 3084.87 Q3950.64 3080.26 3950.64 3071.53 Q3950.64 3062.78 3953.69 3058.2 Q3956.77 3053.59 3962.58 3053.59 Z" fill="#000000" fill-rule="nonzero" fill-opacity="1" /><path clip-path="url(#clip980)" d="M2394.7 3140.52 L2434.9 3140.52 L2434.9 3145.93 L2418.03 3145.93 L2418.03 3188.04 L2411.57 3188.04 L2411.57 3145.93 L2394.7 3145.93 L2394.7 3140.52 Z" fill="#000000" fill-rule="nonzero" fill-opacity="1" /><path clip-path="url(#clip980)" d="M2438.84 3152.4 L2444.7 3152.4 L2444.7 3188.04 L2438.84 3188.04 L2438.84 3152.4 M2438.84 3138.52 L2444.7 3138.52 L2444.7 3145.93 L2438.84 3145.93 L2438.84 3138.52 Z" fill="#000000" fill-rule="nonzero" fill-opacity="1" /><path clip-path="url(#clip980)" d="M2484.71 3159.24 Q2486.9 3155.29 2489.96 3153.41 Q2493.02 3151.54 2497.15 3151.54 Q2502.72 3151.54 2505.75 3155.45 Q2508.77 3159.33 2508.77 3166.53 L2508.77 3188.04 L2502.88 3188.04 L2502.88 3166.72 Q2502.88 3161.59 2501.07 3159.11 Q2499.25 3156.63 2495.53 3156.63 Q2490.98 3156.63 2488.34 3159.65 Q2485.7 3162.68 2485.7 3167.9 L2485.7 3188.04 L2479.81 3188.04 L2479.81 3166.72 Q2479.81 3161.56 2477.99 3159.11 Q2476.18 3156.63 2472.39 3156.63 Q2467.9 3156.63 2465.26 3159.68 Q2462.62 3162.71 2462.62 3167.9 L2462.62 3188.04 L2456.73 3188.04 L2456.73 3152.4 L2462.62 3152.4 L2462.62 3157.93 Q2464.62 3154.66 2467.43 3153.1 Q2470.23 3151.54 2474.08 3151.54 Q2477.96 3151.54 2480.67 3153.51 Q2483.4 3155.48 2484.71 3159.24 Z" fill="#000000" fill-rule="nonzero" fill-opacity="1" /><path clip-path="url(#clip980)" d="M2550.94 3168.76 L2550.94 3171.62 L2524.02 3171.62 Q2524.4 3177.67 2527.65 3180.85 Q2530.92 3184 2536.75 3184 Q2540.12 3184 2543.27 3183.17 Q2546.46 3182.35 2549.58 3180.69 L2549.58 3186.23 Q2546.42 3187.57 2543.11 3188.27 Q2539.8 3188.97 2536.4 3188.97 Q2527.87 3188.97 2522.87 3184 Q2517.91 3179.04 2517.91 3170.57 Q2517.91 3161.82 2522.62 3156.69 Q2527.36 3151.54 2535.38 3151.54 Q2542.57 3151.54 2546.74 3156.18 Q2550.94 3160.8 2550.94 3168.76 M2545.09 3167.04 Q2545.02 3162.23 2542.38 3159.37 Q2539.77 3156.5 2535.44 3156.5 Q2530.54 3156.5 2527.58 3159.27 Q2524.65 3162.04 2524.21 3167.07 L2545.09 3167.04 Z" fill="#000000" fill-rule="nonzero" fill-opacity="1" /><path clip-path="url(#clip980)" d="M2595.34 3138.58 Q2591.08 3145.9 2589.01 3153.06 Q2586.94 3160.23 2586.94 3167.58 Q2586.94 3174.93 2589.01 3182.16 Q2591.11 3189.35 2595.34 3196.64 L2590.25 3196.64 Q2585.48 3189.16 2583.09 3181.93 Q2580.74 3174.71 2580.74 3167.58 Q2580.74 3160.48 2583.09 3153.29 Q2585.45 3146.09 2590.25 3138.58 L2595.34 3138.58 Z" fill="#000000" fill-rule="nonzero" fill-opacity="1" /><path clip-path="url(#clip980)" d="M2629.43 3153.45 L2629.43 3158.98 Q2626.95 3157.71 2624.28 3157.07 Q2621.6 3156.44 2618.74 3156.44 Q2614.38 3156.44 2612.18 3157.77 Q2610.02 3159.11 2610.02 3161.79 Q2610.02 3163.82 2611.58 3165 Q2613.14 3166.15 2617.85 3167.2 L2619.85 3167.64 Q2626.09 3168.98 2628.7 3171.43 Q2631.34 3173.85 2631.34 3178.21 Q2631.34 3183.17 2627.4 3186.07 Q2623.48 3188.97 2616.61 3188.97 Q2613.74 3188.97 2610.62 3188.39 Q2607.54 3187.85 2604.1 3186.74 L2604.1 3180.69 Q2607.34 3182.38 2610.5 3183.24 Q2613.65 3184.07 2616.73 3184.07 Q2620.87 3184.07 2623.1 3182.66 Q2625.33 3181.23 2625.33 3178.65 Q2625.33 3176.27 2623.7 3174.99 Q2622.11 3173.72 2616.67 3172.54 L2614.63 3172.07 Q2609.19 3170.92 2606.77 3168.56 Q2604.35 3166.18 2604.35 3162.04 Q2604.35 3157.01 2607.92 3154.27 Q2611.48 3151.54 2618.04 3151.54 Q2621.28 3151.54 2624.15 3152.01 Q2627.01 3152.49 2629.43 3153.45 Z" fill="#000000" fill-rule="nonzero" fill-opacity="1" /><path clip-path="url(#clip980)" d="M2639.75 3138.58 L2644.84 3138.58 Q2649.61 3146.09 2651.97 3153.29 Q2654.35 3160.48 2654.35 3167.58 Q2654.35 3174.71 2651.97 3181.93 Q2649.61 3189.16 2644.84 3196.64 L2639.75 3196.64 Q2643.98 3189.35 2646.05 3182.16 Q2648.15 3174.93 2648.15 3167.58 Q2648.15 3160.23 2646.05 3153.06 Q2643.98 3145.9 2639.75 3138.58 Z" fill="#000000" fill-rule="nonzero" fill-opacity="1" /><polyline clip-path="url(#clip980)" style="stroke:#000000; stroke-linecap:round; stroke-linejoin:round; stroke-width:4; stroke-opacity:1; fill:none" points="296.297,3007.18 296.297,123.472 "/>
<polyline clip-path="url(#clip980)" style="stroke:#000000; stroke-linecap:round; stroke-linejoin:round; stroke-width:4; stroke-opacity:1; fill:none" points="296.297,2653.31 315.194,2653.31 "/>
<polyline clip-path="url(#clip980)" style="stroke:#000000; stroke-linecap:round; stroke-linejoin:round; stroke-width:4; stroke-opacity:1; fill:none" points="296.297,2118.81 315.194,2118.81 "/>
<polyline clip-path="url(#clip980)" style="stroke:#000000; stroke-linecap:round; stroke-linejoin:round; stroke-width:4; stroke-opacity:1; fill:none" points="296.297,1584.31 315.194,1584.31 "/>
<polyline clip-path="url(#clip980)" style="stroke:#000000; stroke-linecap:round; stroke-linejoin:round; stroke-width:4; stroke-opacity:1; fill:none" points="296.297,1049.81 315.194,1049.81 "/>
<polyline clip-path="url(#clip980)" style="stroke:#000000; stroke-linecap:round; stroke-linejoin:round; stroke-width:4; stroke-opacity:1; fill:none" points="296.297,515.314 315.194,515.314 "/>
<path clip-path="url(#clip980)" d="M102.26 2653.76 L131.936 2653.76 L131.936 2657.69 L102.26 2657.69 L102.26 2653.76 Z" fill="#000000" fill-rule="nonzero" fill-opacity="1" /><path clip-path="url(#clip980)" d="M152.607 2651.44 Q149.459 2651.44 147.607 2653.6 Q145.778 2655.75 145.778 2659.5 Q145.778 2663.23 147.607 2665.4 Q149.459 2667.55 152.607 2667.55 Q155.755 2667.55 157.584 2665.4 Q159.436 2663.23 159.436 2659.5 Q159.436 2655.75 157.584 2653.6 Q155.755 2651.44 152.607 2651.44 M161.889 2636.79 L161.889 2641.05 Q160.13 2640.22 158.325 2639.78 Q156.542 2639.34 154.783 2639.34 Q150.153 2639.34 147.7 2642.46 Q145.269 2645.59 144.922 2651.91 Q146.288 2649.89 148.348 2648.83 Q150.408 2647.74 152.885 2647.74 Q158.093 2647.74 161.102 2650.91 Q164.135 2654.06 164.135 2659.5 Q164.135 2664.82 160.987 2668.04 Q157.839 2671.26 152.607 2671.26 Q146.612 2671.26 143.44 2666.68 Q140.269 2662.07 140.269 2653.34 Q140.269 2645.15 144.158 2640.29 Q148.047 2635.4 154.598 2635.4 Q156.357 2635.4 158.139 2635.75 Q159.945 2636.1 161.889 2636.79 Z" fill="#000000" fill-rule="nonzero" fill-opacity="1" /><path clip-path="url(#clip980)" d="M182.19 2639.11 Q178.579 2639.11 176.75 2642.67 Q174.945 2646.21 174.945 2653.34 Q174.945 2660.45 176.75 2664.01 Q178.579 2667.55 182.19 2667.55 Q185.825 2667.55 187.63 2664.01 Q189.459 2660.45 189.459 2653.34 Q189.459 2646.21 187.63 2642.67 Q185.825 2639.11 182.19 2639.11 M182.19 2635.4 Q188 2635.4 191.056 2640.01 Q194.135 2644.59 194.135 2653.34 Q194.135 2662.07 191.056 2666.68 Q188 2671.26 182.19 2671.26 Q176.38 2671.26 173.301 2666.68 Q170.246 2662.07 170.246 2653.34 Q170.246 2644.59 173.301 2640.01 Q176.38 2635.4 182.19 2635.4 Z" fill="#000000" fill-rule="nonzero" fill-opacity="1" /><path clip-path="url(#clip980)" d="M212.352 2639.11 Q208.741 2639.11 206.912 2642.67 Q205.107 2646.21 205.107 2653.34 Q205.107 2660.45 206.912 2664.01 Q208.741 2667.55 212.352 2667.55 Q215.986 2667.55 217.792 2664.01 Q219.621 2660.45 219.621 2653.34 Q219.621 2646.21 217.792 2642.67 Q215.986 2639.11 212.352 2639.11 M212.352 2635.4 Q218.162 2635.4 221.218 2640.01 Q224.297 2644.59 224.297 2653.34 Q224.297 2662.07 221.218 2666.68 Q218.162 2671.26 212.352 2671.26 Q206.542 2671.26 203.463 2666.68 Q200.408 2662.07 200.408 2653.34 Q200.408 2644.59 203.463 2640.01 Q206.542 2635.4 212.352 2635.4 Z" fill="#000000" fill-rule="nonzero" fill-opacity="1" /><path clip-path="url(#clip980)" d="M102.26 2119.26 L131.936 2119.26 L131.936 2123.2 L102.26 2123.2 L102.26 2119.26 Z" fill="#000000" fill-rule="nonzero" fill-opacity="1" /><path clip-path="url(#clip980)" d="M156.195 2117.45 Q159.552 2118.17 161.427 2120.44 Q163.325 2122.71 163.325 2126.04 Q163.325 2131.16 159.806 2133.96 Q156.288 2136.76 149.806 2136.76 Q147.63 2136.76 145.315 2136.32 Q143.024 2135.9 140.57 2135.05 L140.57 2130.53 Q142.515 2131.67 144.829 2132.25 Q147.144 2132.83 149.667 2132.83 Q154.065 2132.83 156.357 2131.09 Q158.672 2129.35 158.672 2126.04 Q158.672 2122.99 156.519 2121.27 Q154.39 2119.54 150.57 2119.54 L146.542 2119.54 L146.542 2115.7 L150.755 2115.7 Q154.204 2115.7 156.033 2114.33 Q157.862 2112.94 157.862 2110.35 Q157.862 2107.69 155.964 2106.27 Q154.089 2104.84 150.57 2104.84 Q148.649 2104.84 146.45 2105.26 Q144.251 2105.67 141.612 2106.55 L141.612 2102.39 Q144.274 2101.64 146.589 2101.27 Q148.927 2100.9 150.987 2100.9 Q156.311 2100.9 159.413 2103.33 Q162.514 2105.74 162.514 2109.86 Q162.514 2112.73 160.871 2114.72 Q159.227 2116.69 156.195 2117.45 Z" fill="#000000" fill-rule="nonzero" fill-opacity="1" /><path clip-path="url(#clip980)" d="M182.19 2104.61 Q178.579 2104.61 176.75 2108.17 Q174.945 2111.71 174.945 2118.84 Q174.945 2125.95 176.75 2129.52 Q178.579 2133.06 182.19 2133.06 Q185.825 2133.06 187.63 2129.52 Q189.459 2125.95 189.459 2118.84 Q189.459 2111.71 187.63 2108.17 Q185.825 2104.61 182.19 2104.61 M182.19 2100.9 Q188 2100.9 191.056 2105.51 Q194.135 2110.09 194.135 2118.84 Q194.135 2127.57 191.056 2132.18 Q188 2136.76 182.19 2136.76 Q176.38 2136.76 173.301 2132.18 Q170.246 2127.57 170.246 2118.84 Q170.246 2110.09 173.301 2105.51 Q176.38 2100.9 182.19 2100.9 Z" fill="#000000" fill-rule="nonzero" fill-opacity="1" /><path clip-path="url(#clip980)" d="M212.352 2104.61 Q208.741 2104.61 206.912 2108.17 Q205.107 2111.71 205.107 2118.84 Q205.107 2125.95 206.912 2129.52 Q208.741 2133.06 212.352 2133.06 Q215.986 2133.06 217.792 2129.52 Q219.621 2125.95 219.621 2118.84 Q219.621 2111.71 217.792 2108.17 Q215.986 2104.61 212.352 2104.61 M212.352 2100.9 Q218.162 2100.9 221.218 2105.51 Q224.297 2110.09 224.297 2118.84 Q224.297 2127.57 221.218 2132.18 Q218.162 2136.76 212.352 2136.76 Q206.542 2136.76 203.463 2132.18 Q200.408 2127.57 200.408 2118.84 Q200.408 2110.09 203.463 2105.51 Q206.542 2100.9 212.352 2100.9 Z" fill="#000000" fill-rule="nonzero" fill-opacity="1" /><path clip-path="url(#clip980)" d="M212.352 1570.11 Q208.741 1570.11 206.912 1573.67 Q205.107 1577.22 205.107 1584.35 Q205.107 1591.45 206.912 1595.02 Q208.741 1598.56 212.352 1598.56 Q215.986 1598.56 217.792 1595.02 Q219.621 1591.45 219.621 1584.35 Q219.621 1577.22 217.792 1573.67 Q215.986 1570.11 212.352 1570.11 M212.352 1566.41 Q218.162 1566.41 221.218 1571.01 Q224.297 1575.6 224.297 1584.35 Q224.297 1593.07 221.218 1597.68 Q218.162 1602.26 212.352 1602.26 Q206.542 1602.26 203.463 1597.68 Q200.408 1593.07 200.408 1584.35 Q200.408 1575.6 203.463 1571.01 Q206.542 1566.41 212.352 1566.41 Z" fill="#000000" fill-rule="nonzero" fill-opacity="1" /><path clip-path="url(#clip980)" d="M156.195 1048.46 Q159.552 1049.18 161.427 1051.44 Q163.325 1053.71 163.325 1057.05 Q163.325 1062.16 159.806 1064.96 Q156.288 1067.76 149.806 1067.76 Q147.63 1067.76 145.315 1067.32 Q143.024 1066.91 140.57 1066.05 L140.57 1061.54 Q142.515 1062.67 144.829 1063.25 Q147.144 1063.83 149.667 1063.83 Q154.065 1063.83 156.357 1062.09 Q158.672 1060.36 158.672 1057.05 Q158.672 1053.99 156.519 1052.28 Q154.39 1050.54 150.57 1050.54 L146.542 1050.54 L146.542 1046.7 L150.755 1046.7 Q154.204 1046.7 156.033 1045.33 Q157.862 1043.94 157.862 1041.35 Q157.862 1038.69 155.964 1037.28 Q154.089 1035.84 150.57 1035.84 Q148.649 1035.84 146.45 1036.26 Q144.251 1036.68 141.612 1037.56 L141.612 1033.39 Q144.274 1032.65 146.589 1032.28 Q148.927 1031.91 150.987 1031.91 Q156.311 1031.91 159.413 1034.34 Q162.514 1036.75 162.514 1040.87 Q162.514 1043.74 160.871 1045.73 Q159.227 1047.69 156.195 1048.46 Z" fill="#000000" fill-rule="nonzero" fill-opacity="1" /><path clip-path="url(#clip980)" d="M182.19 1035.61 Q178.579 1035.61 176.75 1039.18 Q174.945 1042.72 174.945 1049.85 Q174.945 1056.95 176.75 1060.52 Q178.579 1064.06 182.19 1064.06 Q185.825 1064.06 187.63 1060.52 Q189.459 1056.95 189.459 1049.85 Q189.459 1042.72 187.63 1039.18 Q185.825 1035.61 182.19 1035.61 M182.19 1031.91 Q188 1031.91 191.056 1036.51 Q194.135 1041.1 194.135 1049.85 Q194.135 1058.57 191.056 1063.18 Q188 1067.76 182.19 1067.76 Q176.38 1067.76 173.301 1063.18 Q170.246 1058.57 170.246 1049.85 Q170.246 1041.1 173.301 1036.51 Q176.38 1031.91 182.19 1031.91 Z" fill="#000000" fill-rule="nonzero" fill-opacity="1" /><path clip-path="url(#clip980)" d="M212.352 1035.61 Q208.741 1035.61 206.912 1039.18 Q205.107 1042.72 205.107 1049.85 Q205.107 1056.95 206.912 1060.52 Q208.741 1064.06 212.352 1064.06 Q215.986 1064.06 217.792 1060.52 Q219.621 1056.95 219.621 1049.85 Q219.621 1042.72 217.792 1039.18 Q215.986 1035.61 212.352 1035.61 M212.352 1031.91 Q218.162 1031.91 221.218 1036.51 Q224.297 1041.1 224.297 1049.85 Q224.297 1058.57 221.218 1063.18 Q218.162 1067.76 212.352 1067.76 Q206.542 1067.76 203.463 1063.18 Q200.408 1058.57 200.408 1049.85 Q200.408 1041.1 203.463 1036.51 Q206.542 1031.91 212.352 1031.91 Z" fill="#000000" fill-rule="nonzero" fill-opacity="1" /><path clip-path="url(#clip980)" d="M152.607 513.451 Q149.459 513.451 147.607 515.604 Q145.778 517.757 145.778 521.507 Q145.778 525.233 147.607 527.409 Q149.459 529.562 152.607 529.562 Q155.755 529.562 157.584 527.409 Q159.436 525.233 159.436 521.507 Q159.436 517.757 157.584 515.604 Q155.755 513.451 152.607 513.451 M161.889 498.798 L161.889 503.058 Q160.13 502.224 158.325 501.784 Q156.542 501.345 154.783 501.345 Q150.153 501.345 147.7 504.47 Q145.269 507.595 144.922 513.914 Q146.288 511.9 148.348 510.835 Q150.408 509.747 152.885 509.747 Q158.093 509.747 161.102 512.919 Q164.135 516.067 164.135 521.507 Q164.135 526.831 160.987 530.048 Q157.839 533.266 152.607 533.266 Q146.612 533.266 143.44 528.682 Q140.269 524.076 140.269 515.349 Q140.269 507.155 144.158 502.294 Q148.047 497.409 154.598 497.409 Q156.357 497.409 158.139 497.757 Q159.945 498.104 161.889 498.798 Z" fill="#000000" fill-rule="nonzero" fill-opacity="1" /><path clip-path="url(#clip980)" d="M182.19 501.113 Q178.579 501.113 176.75 504.678 Q174.945 508.22 174.945 515.349 Q174.945 522.456 176.75 526.02 Q178.579 529.562 182.19 529.562 Q185.825 529.562 187.63 526.02 Q189.459 522.456 189.459 515.349 Q189.459 508.22 187.63 504.678 Q185.825 501.113 182.19 501.113 M182.19 497.409 Q188 497.409 191.056 502.016 Q194.135 506.599 194.135 515.349 Q194.135 524.076 191.056 528.682 Q188 533.266 182.19 533.266 Q176.38 533.266 173.301 528.682 Q170.246 524.076 170.246 515.349 Q170.246 506.599 173.301 502.016 Q176.38 497.409 182.19 497.409 Z" fill="#000000" fill-rule="nonzero" fill-opacity="1" /><path clip-path="url(#clip980)" d="M212.352 501.113 Q208.741 501.113 206.912 504.678 Q205.107 508.22 205.107 515.349 Q205.107 522.456 206.912 526.02 Q208.741 529.562 212.352 529.562 Q215.986 529.562 217.792 526.02 Q219.621 522.456 219.621 515.349 Q219.621 508.22 217.792 504.678 Q215.986 501.113 212.352 501.113 M212.352 497.409 Q218.162 497.409 221.218 502.016 Q224.297 506.599 224.297 515.349 Q224.297 524.076 221.218 528.682 Q218.162 533.266 212.352 533.266 Q206.542 533.266 203.463 528.682 Q200.408 524.076 200.408 515.349 Q200.408 506.599 203.463 502.016 Q206.542 497.409 212.352 497.409 Z" fill="#000000" fill-rule="nonzero" fill-opacity="1" /><path clip-path="url(#clip980)" d="M-27.8556 1702.87 L-21.0761 1702.87 Q-24.0998 1706.12 -25.5957 1709.81 Q-27.0917 1713.47 -27.0917 1717.61 Q-27.0917 1725.76 -22.0946 1730.09 Q-17.1293 1734.42 -7.7081 1734.42 Q1.68132 1734.42 6.6784 1730.09 Q11.6436 1725.76 11.6436 1717.61 Q11.6436 1713.47 10.1477 1709.81 Q8.65177 1706.12 5.62806 1702.87 L12.3439 1702.87 Q14.6355 1706.25 15.7814 1710.03 Q16.9272 1713.79 16.9272 1717.99 Q16.9272 1728.78 10.3387 1734.99 Q3.71834 1741.19 -7.7081 1741.19 Q-19.1664 1741.19 -25.7549 1734.99 Q-32.3752 1728.78 -32.3752 1717.99 Q-32.3752 1713.73 -31.2294 1709.97 Q-30.1154 1706.18 -27.8556 1702.87 Z" fill="#000000" fill-rule="nonzero" fill-opacity="1" /><path clip-path="url(#clip980)" d="M1.93595 1693.8 L-19.6438 1693.8 L-19.6438 1687.95 L1.71315 1687.95 Q6.77388 1687.95 9.32017 1685.97 Q11.8346 1684 11.8346 1680.05 Q11.8346 1675.31 8.81091 1672.57 Q5.7872 1669.8 0.567319 1669.8 L-19.6438 1669.8 L-19.6438 1663.95 L16.0042 1663.95 L16.0042 1669.8 L10.5296 1669.8 Q13.7762 1671.94 15.3676 1674.77 Q16.9272 1677.57 16.9272 1681.29 Q16.9272 1687.44 13.1078 1690.62 Q9.28834 1693.8 1.93595 1693.8 M-20.5032 1679.07 L-20.5032 1679.07 Z" fill="#000000" fill-rule="nonzero" fill-opacity="1" /><path clip-path="url(#clip980)" d="M-14.1693 1631.23 Q-14.7422 1632.21 -14.9968 1633.39 Q-15.2833 1634.54 -15.2833 1635.94 Q-15.2833 1640.9 -12.0368 1643.58 Q-8.8221 1646.22 -2.77468 1646.22 L16.0042 1646.22 L16.0042 1652.11 L-19.6438 1652.11 L-19.6438 1646.22 L-14.1056 1646.22 Q-17.3521 1644.37 -18.9117 1641.41 Q-20.5032 1638.45 -20.5032 1634.22 Q-20.5032 1633.61 -20.4077 1632.88 Q-20.344 1632.15 -20.1849 1631.26 L-14.1693 1631.23 Z" fill="#000000" fill-rule="nonzero" fill-opacity="1" /><path clip-path="url(#clip980)" d="M-14.1693 1605.57 Q-14.7422 1606.56 -14.9968 1607.74 Q-15.2833 1608.88 -15.2833 1610.28 Q-15.2833 1615.25 -12.0368 1617.92 Q-8.8221 1620.56 -2.77468 1620.56 L16.0042 1620.56 L16.0042 1626.45 L-19.6438 1626.45 L-19.6438 1620.56 L-14.1056 1620.56 Q-17.3521 1618.72 -18.9117 1615.76 Q-20.5032 1612.8 -20.5032 1608.57 Q-20.5032 1607.96 -20.4077 1607.23 Q-20.344 1606.5 -20.1849 1605.6 L-14.1693 1605.57 Z" fill="#000000" fill-rule="nonzero" fill-opacity="1" /><path clip-path="url(#clip980)" d="M-3.28393 1570.37 L-0.419366 1570.37 L-0.419366 1597.3 Q5.62806 1596.92 8.81091 1593.67 Q11.9619 1590.39 11.9619 1584.57 Q11.9619 1581.19 11.1344 1578.04 Q10.3069 1574.86 8.65177 1571.74 L14.1899 1571.74 Q15.5267 1574.89 16.227 1578.2 Q16.9272 1581.51 16.9272 1584.92 Q16.9272 1593.45 11.9619 1598.44 Q6.99668 1603.41 -1.46971 1603.41 Q-10.2226 1603.41 -15.3469 1598.7 Q-20.5032 1593.96 -20.5032 1585.93 Q-20.5032 1578.74 -15.8562 1574.57 Q-11.2411 1570.37 -3.28393 1570.37 M-5.00267 1576.23 Q-9.80878 1576.29 -12.6734 1578.93 Q-15.5379 1581.54 -15.5379 1585.87 Q-15.5379 1590.77 -12.7688 1593.73 Q-9.99975 1596.66 -4.97085 1597.11 L-5.00267 1576.23 Z" fill="#000000" fill-rule="nonzero" fill-opacity="1" /><path clip-path="url(#clip980)" d="M-5.51193 1531.13 L16.0042 1531.13 L16.0042 1536.98 L-5.32096 1536.98 Q-10.3817 1536.98 -12.8962 1538.96 Q-15.4106 1540.93 -15.4106 1544.88 Q-15.4106 1549.62 -12.3869 1552.36 Q-9.36318 1555.09 -4.1433 1555.09 L16.0042 1555.09 L16.0042 1560.98 L-19.6438 1560.98 L-19.6438 1555.09 L-14.1056 1555.09 Q-17.3203 1552.99 -18.9117 1550.16 Q-20.5032 1547.3 -20.5032 1543.57 Q-20.5032 1537.43 -16.6837 1534.28 Q-12.8962 1531.13 -5.51193 1531.13 Z" fill="#000000" fill-rule="nonzero" fill-opacity="1" /><path clip-path="url(#clip980)" d="M-29.7653 1513.65 L-19.6438 1513.65 L-19.6438 1501.59 L-15.0923 1501.59 L-15.0923 1513.65 L4.25943 1513.65 Q8.61994 1513.65 9.86125 1512.47 Q11.1026 1511.27 11.1026 1507.6 L11.1026 1501.59 L16.0042 1501.59 L16.0042 1507.6 Q16.0042 1514.38 13.4897 1516.96 Q10.9434 1519.54 4.25943 1519.54 L-15.0923 1519.54 L-15.0923 1523.84 L-19.6438 1523.84 L-19.6438 1519.54 L-29.7653 1519.54 L-29.7653 1513.65 Z" fill="#000000" fill-rule="nonzero" fill-opacity="1" /><path clip-path="url(#clip980)" d="M-33.4574 1459.1 Q-26.1368 1463.36 -18.9754 1465.43 Q-11.814 1467.5 -4.46159 1467.5 Q2.8908 1467.5 10.1159 1465.43 Q17.3091 1463.33 24.5979 1459.1 L24.5979 1464.19 Q17.1182 1468.97 9.89308 1471.35 Q2.668 1473.71 -4.46159 1473.71 Q-11.5594 1473.71 -18.7526 1471.35 Q-25.9458 1469 -33.4574 1464.19 L-33.4574 1459.1 Z" fill="#000000" fill-rule="nonzero" fill-opacity="1" /><path clip-path="url(#clip980)" d="M-25.182 1431.6 L-1.53336 1440.32 L-1.53336 1422.85 L-25.182 1431.6 M-31.5158 1435.23 L-31.5158 1427.94 L16.0042 1409.83 L16.0042 1416.51 L3.81383 1420.84 L3.81383 1442.26 L16.0042 1446.59 L16.0042 1453.37 L-31.5158 1435.23 Z" fill="#000000" fill-rule="nonzero" fill-opacity="1" /><path clip-path="url(#clip980)" d="M-33.4574 1404.07 L-33.4574 1398.97 Q-25.9458 1394.2 -18.7526 1391.84 Q-11.5594 1389.46 -4.46159 1389.46 Q2.668 1389.46 9.89308 1391.84 Q17.1182 1394.2 24.5979 1398.97 L24.5979 1404.07 Q17.3091 1399.83 10.1159 1397.76 Q2.8908 1395.66 -4.46159 1395.66 Q-11.814 1395.66 -18.9754 1397.76 Q-26.1368 1399.83 -33.4574 1404.07 Z" fill="#000000" fill-rule="nonzero" fill-opacity="1" /><path clip-path="url(#clip980)" d="M1821.82 16.7545 L1821.82 25.383 Q1817.68 21.5346 1812.98 19.6307 Q1808.33 17.7268 1803.06 17.7268 Q1792.69 17.7268 1787.18 24.0867 Q1781.67 30.4061 1781.67 42.3968 Q1781.67 54.3469 1787.18 60.7069 Q1792.69 67.0263 1803.06 67.0263 Q1808.33 67.0263 1812.98 65.1223 Q1817.68 63.2184 1821.82 59.3701 L1821.82 67.9175 Q1817.52 70.8341 1812.7 72.2924 Q1807.92 73.7508 1802.57 73.7508 Q1788.84 73.7508 1780.94 65.3654 Q1773.04 56.9395 1773.04 42.3968 Q1773.04 27.8135 1780.94 19.4281 Q1788.84 11.0023 1802.57 11.0023 Q1808 11.0023 1812.78 12.4606 Q1817.6 13.8784 1821.82 16.7545 Z" fill="#000000" fill-rule="nonzero" fill-opacity="1" /><path clip-path="url(#clip980)" d="M1833.36 54.671 L1833.36 27.2059 L1840.81 27.2059 L1840.81 54.3874 Q1840.81 60.8284 1843.33 64.0691 Q1845.84 67.2693 1850.86 67.2693 Q1856.9 67.2693 1860.38 63.421 Q1863.9 59.5726 1863.9 52.9291 L1863.9 27.2059 L1871.36 27.2059 L1871.36 72.576 L1863.9 72.576 L1863.9 65.6084 Q1861.19 69.7404 1857.59 71.7658 Q1854.02 73.7508 1849.28 73.7508 Q1841.46 73.7508 1837.41 68.8897 Q1833.36 64.0286 1833.36 54.671 M1852.12 26.1121 L1852.12 26.1121 Z" fill="#000000" fill-rule="nonzero" fill-opacity="1" /><path clip-path="url(#clip980)" d="M1913 34.1734 Q1911.75 33.4443 1910.25 33.1202 Q1908.79 32.7556 1907.01 32.7556 Q1900.69 32.7556 1897.28 36.8875 Q1893.92 40.9789 1893.92 48.6757 L1893.92 72.576 L1886.43 72.576 L1886.43 27.2059 L1893.92 27.2059 L1893.92 34.2544 Q1896.27 30.1225 1900.04 28.1376 Q1903.81 26.1121 1909.19 26.1121 Q1909.96 26.1121 1910.9 26.2337 Q1911.83 26.3147 1912.96 26.5172 L1913 34.1734 Z" fill="#000000" fill-rule="nonzero" fill-opacity="1" /><path clip-path="url(#clip980)" d="M1945.65 34.1734 Q1944.4 33.4443 1942.9 33.1202 Q1941.44 32.7556 1939.66 32.7556 Q1933.34 32.7556 1929.93 36.8875 Q1926.57 40.9789 1926.57 48.6757 L1926.57 72.576 L1919.08 72.576 L1919.08 27.2059 L1926.57 27.2059 L1926.57 34.2544 Q1928.92 30.1225 1932.69 28.1376 Q1936.46 26.1121 1941.84 26.1121 Q1942.61 26.1121 1943.55 26.2337 Q1944.48 26.3147 1945.61 26.5172 L1945.65 34.1734 Z" fill="#000000" fill-rule="nonzero" fill-opacity="1" /><path clip-path="url(#clip980)" d="M1990.46 48.0275 L1990.46 51.6733 L1956.18 51.6733 Q1956.67 59.3701 1960.8 63.421 Q1964.97 67.4314 1972.39 67.4314 Q1976.68 67.4314 1980.69 66.3781 Q1984.74 65.3249 1988.71 63.2184 L1988.71 70.267 Q1984.7 71.9684 1980.49 72.8596 Q1976.28 73.7508 1971.94 73.7508 Q1961.09 73.7508 1954.73 67.4314 Q1948.41 61.1119 1948.41 50.3365 Q1948.41 39.1965 1954.4 32.6746 Q1960.44 26.1121 1970.65 26.1121 Q1979.8 26.1121 1985.11 32.0264 Q1990.46 37.9003 1990.46 48.0275 M1983 45.84 Q1982.92 39.7232 1979.56 36.0774 Q1976.24 32.4315 1970.73 32.4315 Q1964.49 32.4315 1960.72 35.9558 Q1956.99 39.4801 1956.43 45.8805 L1983 45.84 Z" fill="#000000" fill-rule="nonzero" fill-opacity="1" /><path clip-path="url(#clip980)" d="M2040.4 45.1919 L2040.4 72.576 L2032.95 72.576 L2032.95 45.4349 Q2032.95 38.994 2030.44 35.7938 Q2027.93 32.5936 2022.9 32.5936 Q2016.87 32.5936 2013.38 36.4419 Q2009.9 40.2903 2009.9 46.9338 L2009.9 72.576 L2002.41 72.576 L2002.41 27.2059 L2009.9 27.2059 L2009.9 34.2544 Q2012.57 30.163 2016.18 28.1376 Q2019.82 26.1121 2024.56 26.1121 Q2032.38 26.1121 2036.39 30.9732 Q2040.4 35.7938 2040.4 45.1919 Z" fill="#000000" fill-rule="nonzero" fill-opacity="1" /><path clip-path="url(#clip980)" d="M2062.64 14.324 L2062.64 27.2059 L2078 27.2059 L2078 32.9987 L2062.64 32.9987 L2062.64 57.6282 Q2062.64 63.1779 2064.14 64.7578 Q2065.68 66.3376 2070.34 66.3376 L2078 66.3376 L2078 72.576 L2070.34 72.576 Q2061.71 72.576 2058.43 69.3758 Q2055.15 66.1351 2055.15 57.6282 L2055.15 32.9987 L2049.68 32.9987 L2049.68 27.2059 L2055.15 27.2059 L2055.15 14.324 L2062.64 14.324 Z" fill="#000000" fill-rule="nonzero" fill-opacity="1" /><path clip-path="url(#clip980)" d="M2122.68 18.8205 L2122.68 65.8515 L2132.56 65.8515 Q2145.08 65.8515 2150.87 60.1802 Q2156.7 54.509 2156.7 42.2752 Q2156.7 30.1225 2150.87 24.4918 Q2145.08 18.8205 2132.56 18.8205 L2122.68 18.8205 M2114.49 12.096 L2131.3 12.096 Q2148.89 12.096 2157.11 19.4281 Q2165.33 26.7198 2165.33 42.2752 Q2165.33 57.9117 2157.07 65.2439 Q2148.8 72.576 2131.3 72.576 L2114.49 72.576 L2114.49 12.096 Z" fill="#000000" fill-rule="nonzero" fill-opacity="1" /><path clip-path="url(#clip980)" d="M2216.86 48.0275 L2216.86 51.6733 L2182.59 51.6733 Q2183.08 59.3701 2187.21 63.421 Q2191.38 67.4314 2198.79 67.4314 Q2203.09 67.4314 2207.1 66.3781 Q2211.15 65.3249 2215.12 63.2184 L2215.12 70.267 Q2211.11 71.9684 2206.89 72.8596 Q2202.68 73.7508 2198.35 73.7508 Q2187.49 73.7508 2181.13 67.4314 Q2174.81 61.1119 2174.81 50.3365 Q2174.81 39.1965 2180.81 32.6746 Q2186.84 26.1121 2197.05 26.1121 Q2206.21 26.1121 2211.51 32.0264 Q2216.86 37.9003 2216.86 48.0275 M2209.41 45.84 Q2209.33 39.7232 2205.96 36.0774 Q2202.64 32.4315 2197.13 32.4315 Q2190.89 32.4315 2187.13 35.9558 Q2183.4 39.4801 2182.83 45.8805 L2209.41 45.84 Z" fill="#000000" fill-rule="nonzero" fill-opacity="1" /><path clip-path="url(#clip980)" d="M2252.06 9.54393 L2252.06 15.7418 L2244.93 15.7418 Q2240.92 15.7418 2239.34 17.3622 Q2237.8 18.9825 2237.8 23.1955 L2237.8 27.2059 L2250.08 27.2059 L2250.08 32.9987 L2237.8 32.9987 L2237.8 72.576 L2230.31 72.576 L2230.31 32.9987 L2223.18 32.9987 L2223.18 27.2059 L2230.31 27.2059 L2230.31 24.0462 Q2230.31 16.471 2233.83 13.0277 Q2237.36 9.54393 2245.01 9.54393 L2252.06 9.54393 Z" fill="#000000" fill-rule="nonzero" fill-opacity="1" /><path clip-path="url(#clip980)" d="M2258.3 27.2059 L2265.75 27.2059 L2265.75 72.576 L2258.3 72.576 L2258.3 27.2059 M2258.3 9.54393 L2265.75 9.54393 L2265.75 18.9825 L2258.3 18.9825 L2258.3 9.54393 Z" fill="#000000" fill-rule="nonzero" fill-opacity="1" /><path clip-path="url(#clip980)" d="M2314 28.9478 L2314 35.9153 Q2310.84 34.1734 2307.64 33.3227 Q2304.48 32.4315 2301.24 32.4315 Q2293.99 32.4315 2289.98 37.0496 Q2285.97 41.6271 2285.97 49.9314 Q2285.97 58.2358 2289.98 62.8538 Q2293.99 67.4314 2301.24 67.4314 Q2304.48 67.4314 2307.64 66.5807 Q2310.84 65.6895 2314 63.9476 L2314 70.8341 Q2310.88 72.2924 2307.52 73.0216 Q2304.2 73.7508 2300.43 73.7508 Q2290.18 73.7508 2284.15 67.3098 Q2278.11 60.8689 2278.11 49.9314 Q2278.11 38.832 2284.19 32.472 Q2290.3 26.1121 2300.92 26.1121 Q2304.36 26.1121 2307.64 26.8413 Q2310.92 27.5299 2314 28.9478 Z" fill="#000000" fill-rule="nonzero" fill-opacity="1" /><path clip-path="url(#clip980)" d="M2326.96 27.2059 L2334.42 27.2059 L2334.42 72.576 L2326.96 72.576 L2326.96 27.2059 M2326.96 9.54393 L2334.42 9.54393 L2334.42 18.9825 L2326.96 18.9825 L2326.96 9.54393 Z" fill="#000000" fill-rule="nonzero" fill-opacity="1" /><path clip-path="url(#clip980)" d="M2357.39 14.324 L2357.39 27.2059 L2372.74 27.2059 L2372.74 32.9987 L2357.39 32.9987 L2357.39 57.6282 Q2357.39 63.1779 2358.88 64.7578 Q2360.42 66.3376 2365.08 66.3376 L2372.74 66.3376 L2372.74 72.576 L2365.08 72.576 Q2356.45 72.576 2353.17 69.3758 Q2349.89 66.1351 2349.89 57.6282 L2349.89 32.9987 L2344.42 32.9987 L2344.42 27.2059 L2349.89 27.2059 L2349.89 14.324 L2357.39 14.324 Z" fill="#000000" fill-rule="nonzero" fill-opacity="1" /><path clip-path="url(#clip980)" d="M2417.42 18.8205 L2417.42 65.8515 L2427.3 65.8515 Q2439.82 65.8515 2445.61 60.1802 Q2451.45 54.509 2451.45 42.2752 Q2451.45 30.1225 2445.61 24.4918 Q2439.82 18.8205 2427.3 18.8205 L2417.42 18.8205 M2409.24 12.096 L2426.05 12.096 Q2443.63 12.096 2451.85 19.4281 Q2460.08 26.7198 2460.08 42.2752 Q2460.08 57.9117 2451.81 65.2439 Q2443.55 72.576 2426.05 72.576 L2409.24 72.576 L2409.24 12.096 Z" fill="#000000" fill-rule="nonzero" fill-opacity="1" /><path clip-path="url(#clip980)" d="M2499.09 34.1734 Q2497.83 33.4443 2496.33 33.1202 Q2494.87 32.7556 2493.09 32.7556 Q2486.77 32.7556 2483.37 36.8875 Q2480.01 40.9789 2480.01 48.6757 L2480.01 72.576 L2472.51 72.576 L2472.51 27.2059 L2480.01 27.2059 L2480.01 34.2544 Q2482.36 30.1225 2486.12 28.1376 Q2489.89 26.1121 2495.28 26.1121 Q2496.05 26.1121 2496.98 26.2337 Q2497.91 26.3147 2499.05 26.5172 L2499.09 34.1734 Z" fill="#000000" fill-rule="nonzero" fill-opacity="1" /><path clip-path="url(#clip980)" d="M2506.9 27.2059 L2514.36 27.2059 L2514.36 72.576 L2506.9 72.576 L2506.9 27.2059 M2506.9 9.54393 L2514.36 9.54393 L2514.36 18.9825 L2506.9 18.9825 L2506.9 9.54393 Z" fill="#000000" fill-rule="nonzero" fill-opacity="1" /><path clip-path="url(#clip980)" d="M2524.61 27.2059 L2532.51 27.2059 L2546.68 65.2844 L2560.86 27.2059 L2568.76 27.2059 L2551.75 72.576 L2541.62 72.576 L2524.61 27.2059 Z" fill="#000000" fill-rule="nonzero" fill-opacity="1" /><path clip-path="url(#clip980)" d="M2617.86 48.0275 L2617.86 51.6733 L2583.59 51.6733 Q2584.07 59.3701 2588.21 63.421 Q2592.38 67.4314 2599.79 67.4314 Q2604.09 67.4314 2608.1 66.3781 Q2612.15 65.3249 2616.12 63.2184 L2616.12 70.267 Q2612.11 71.9684 2607.89 72.8596 Q2603.68 73.7508 2599.35 73.7508 Q2588.49 73.7508 2582.13 67.4314 Q2575.81 61.1119 2575.81 50.3365 Q2575.81 39.1965 2581.81 32.6746 Q2587.84 26.1121 2598.05 26.1121 Q2607.21 26.1121 2612.51 32.0264 Q2617.86 37.9003 2617.86 48.0275 M2610.41 45.84 Q2610.32 39.7232 2606.96 36.0774 Q2603.64 32.4315 2598.13 32.4315 Q2591.89 32.4315 2588.13 35.9558 Q2584.4 39.4801 2583.83 45.8805 L2610.41 45.84 Z" fill="#000000" fill-rule="nonzero" fill-opacity="1" /><path clip-path="url(#clip980)" d="M2659.02 28.5427 L2659.02 35.5912 Q2655.86 33.9709 2652.45 33.1607 Q2649.05 32.3505 2645.41 32.3505 Q2639.86 32.3505 2637.06 34.0519 Q2634.31 35.7533 2634.31 39.156 Q2634.31 41.7486 2636.29 43.2475 Q2638.28 44.7058 2644.27 46.0426 L2646.82 46.6097 Q2654.76 48.3111 2658.08 51.4303 Q2661.45 54.509 2661.45 60.0587 Q2661.45 66.3781 2656.42 70.0644 Q2651.44 73.7508 2642.69 73.7508 Q2639.05 73.7508 2635.08 73.0216 Q2631.15 72.3329 2626.77 70.9151 L2626.77 63.2184 Q2630.9 65.3654 2634.91 66.4591 Q2638.92 67.5124 2642.85 67.5124 Q2648.12 67.5124 2650.95 65.73 Q2653.79 63.9071 2653.79 60.6258 Q2653.79 57.5877 2651.72 55.9673 Q2649.7 54.3469 2642.77 52.8481 L2640.18 52.2405 Q2633.25 50.7821 2630.17 47.7845 Q2627.1 44.7463 2627.1 39.4801 Q2627.1 33.0797 2631.63 29.5959 Q2636.17 26.1121 2644.51 26.1121 Q2648.65 26.1121 2652.29 26.7198 Q2655.94 27.3274 2659.02 28.5427 Z" fill="#000000" fill-rule="nonzero" fill-opacity="1" /><path clip-path="url(#clip980)" d="M2708.19 43.6931 L2708.19 65.8515 L2721.32 65.8515 Q2727.92 65.8515 2731.08 63.1374 Q2734.28 60.3828 2734.28 54.752 Q2734.28 49.0808 2731.08 46.4072 Q2727.92 43.6931 2721.32 43.6931 L2708.19 43.6931 M2708.19 18.8205 L2708.19 37.0496 L2720.31 37.0496 Q2726.3 37.0496 2729.22 34.8216 Q2732.18 32.5531 2732.18 27.935 Q2732.18 23.3575 2729.22 21.089 Q2726.3 18.8205 2720.31 18.8205 L2708.19 18.8205 M2700.01 12.096 L2720.91 12.096 Q2730.27 12.096 2735.34 15.9849 Q2740.4 19.8737 2740.4 27.0438 Q2740.4 32.5936 2737.81 35.8748 Q2735.21 39.156 2730.19 39.9662 Q2736.23 41.2625 2739.55 45.3944 Q2742.91 49.4858 2742.91 55.6432 Q2742.91 63.745 2737.4 68.1605 Q2731.89 72.576 2721.72 72.576 L2700.01 72.576 L2700.01 12.096 Z" fill="#000000" fill-rule="nonzero" fill-opacity="1" /><path clip-path="url(#clip980)" d="M2755.83 54.671 L2755.83 27.2059 L2763.29 27.2059 L2763.29 54.3874 Q2763.29 60.8284 2765.8 64.0691 Q2768.31 67.2693 2773.33 67.2693 Q2779.37 67.2693 2782.85 63.421 Q2786.38 59.5726 2786.38 52.9291 L2786.38 27.2059 L2793.83 27.2059 L2793.83 72.576 L2786.38 72.576 L2786.38 65.6084 Q2783.66 69.7404 2780.06 71.7658 Q2776.49 73.7508 2771.75 73.7508 Q2763.93 73.7508 2759.88 68.8897 Q2755.83 64.0286 2755.83 54.671 M2774.59 26.1121 L2774.59 26.1121 Z" fill="#000000" fill-rule="nonzero" fill-opacity="1" /><path clip-path="url(#clip980)" d="M2838.11 28.5427 L2838.11 35.5912 Q2834.95 33.9709 2831.54 33.1607 Q2828.14 32.3505 2824.5 32.3505 Q2818.95 32.3505 2816.15 34.0519 Q2813.4 35.7533 2813.4 39.156 Q2813.4 41.7486 2815.38 43.2475 Q2817.37 44.7058 2823.36 46.0426 L2825.91 46.6097 Q2833.85 48.3111 2837.18 51.4303 Q2840.54 54.509 2840.54 60.0587 Q2840.54 66.3781 2835.51 70.0644 Q2830.53 73.7508 2821.78 73.7508 Q2818.14 73.7508 2814.17 73.0216 Q2810.24 72.3329 2805.86 70.9151 L2805.86 63.2184 Q2809.99 65.3654 2814 66.4591 Q2818.01 67.5124 2821.94 67.5124 Q2827.21 67.5124 2830.05 65.73 Q2832.88 63.9071 2832.88 60.6258 Q2832.88 57.5877 2830.82 55.9673 Q2828.79 54.3469 2821.86 52.8481 L2819.27 52.2405 Q2812.34 50.7821 2809.26 47.7845 Q2806.19 44.7463 2806.19 39.4801 Q2806.19 33.0797 2810.72 29.5959 Q2815.26 26.1121 2823.6 26.1121 Q2827.74 26.1121 2831.38 26.7198 Q2835.03 27.3274 2838.11 28.5427 Z" fill="#000000" fill-rule="nonzero" fill-opacity="1" /><path clip-path="url(#clip980)" d="M2887.28 18.8205 L2887.28 65.8515 L2897.17 65.8515 Q2909.69 65.8515 2915.48 60.1802 Q2921.31 54.509 2921.31 42.2752 Q2921.31 30.1225 2915.48 24.4918 Q2909.69 18.8205 2897.17 18.8205 L2887.28 18.8205 M2879.1 12.096 L2895.91 12.096 Q2913.49 12.096 2921.72 19.4281 Q2929.94 26.7198 2929.94 42.2752 Q2929.94 57.9117 2921.68 65.2439 Q2913.41 72.576 2895.91 72.576 L2879.1 72.576 L2879.1 12.096 Z" fill="#000000" fill-rule="nonzero" fill-opacity="1" /><path clip-path="url(#clip980)" d="M2961.54 76.7889 Q2958.38 84.8907 2955.38 87.3618 Q2952.38 89.8329 2947.36 89.8329 L2941.4 89.8329 L2941.4 83.5945 L2945.78 83.5945 Q2948.86 83.5945 2950.56 82.1361 Q2952.26 80.6778 2954.33 75.2496 L2955.66 71.8468 L2937.31 27.2059 L2945.21 27.2059 L2959.39 62.6918 L2973.57 27.2059 L2981.47 27.2059 L2961.54 76.7889 Z" fill="#000000" fill-rule="nonzero" fill-opacity="1" /><path clip-path="url(#clip980)" d="M3029.47 45.1919 L3029.47 72.576 L3022.02 72.576 L3022.02 45.4349 Q3022.02 38.994 3019.51 35.7938 Q3016.99 32.5936 3011.97 32.5936 Q3005.94 32.5936 3002.45 36.4419 Q2998.97 40.2903 2998.97 46.9338 L2998.97 72.576 L2991.47 72.576 L2991.47 27.2059 L2998.97 27.2059 L2998.97 34.2544 Q3001.64 30.163 3005.25 28.1376 Q3008.89 26.1121 3013.63 26.1121 Q3021.45 26.1121 3025.46 30.9732 Q3029.47 35.7938 3029.47 45.1919 Z" fill="#000000" fill-rule="nonzero" fill-opacity="1" /><path clip-path="url(#clip980)" d="M3064.96 49.7694 Q3055.92 49.7694 3052.44 51.8354 Q3048.96 53.9013 3048.96 58.8839 Q3048.96 62.8538 3051.55 65.2034 Q3054.18 67.5124 3058.68 67.5124 Q3064.88 67.5124 3068.6 63.1374 Q3072.37 58.7219 3072.37 51.4303 L3072.37 49.7694 L3064.96 49.7694 M3079.82 46.6907 L3079.82 72.576 L3072.37 72.576 L3072.37 65.6895 Q3069.82 69.8214 3066.01 71.8063 Q3062.2 73.7508 3056.69 73.7508 Q3049.73 73.7508 3045.59 69.8619 Q3041.5 65.9325 3041.5 59.3701 Q3041.5 51.7138 3046.61 47.825 Q3051.75 43.9361 3061.92 43.9361 L3072.37 43.9361 L3072.37 43.2069 Q3072.37 38.0623 3068.97 35.2672 Q3065.61 32.4315 3059.49 32.4315 Q3055.6 32.4315 3051.91 33.3632 Q3048.23 34.295 3044.82 36.1584 L3044.82 29.2718 Q3048.92 27.692 3052.76 26.9223 Q3056.61 26.1121 3060.26 26.1121 Q3070.1 26.1121 3074.96 31.2163 Q3079.82 36.3204 3079.82 46.6907 Z" fill="#000000" fill-rule="nonzero" fill-opacity="1" /><path clip-path="url(#clip980)" d="M3130.5 35.9153 Q3133.3 30.8922 3137.18 28.5022 Q3141.07 26.1121 3146.34 26.1121 Q3153.43 26.1121 3157.28 31.0947 Q3161.13 36.0368 3161.13 45.1919 L3161.13 72.576 L3153.63 72.576 L3153.63 45.4349 Q3153.63 38.913 3151.32 35.7533 Q3149.01 32.5936 3144.27 32.5936 Q3138.48 32.5936 3135.12 36.4419 Q3131.76 40.2903 3131.76 46.9338 L3131.76 72.576 L3124.26 72.576 L3124.26 45.4349 Q3124.26 38.8725 3121.95 35.7533 Q3119.64 32.5936 3114.82 32.5936 Q3109.11 32.5936 3105.75 36.4824 Q3102.39 40.3308 3102.39 46.9338 L3102.39 72.576 L3094.89 72.576 L3094.89 27.2059 L3102.39 27.2059 L3102.39 34.2544 Q3104.94 30.082 3108.5 28.0971 Q3112.07 26.1121 3116.97 26.1121 Q3121.91 26.1121 3125.36 28.6237 Q3128.84 31.1352 3130.5 35.9153 Z" fill="#000000" fill-rule="nonzero" fill-opacity="1" /><path clip-path="url(#clip980)" d="M3175.99 27.2059 L3183.45 27.2059 L3183.45 72.576 L3175.99 72.576 L3175.99 27.2059 M3175.99 9.54393 L3183.45 9.54393 L3183.45 18.9825 L3175.99 18.9825 L3175.99 9.54393 Z" fill="#000000" fill-rule="nonzero" fill-opacity="1" /><path clip-path="url(#clip980)" d="M3231.69 28.9478 L3231.69 35.9153 Q3228.53 34.1734 3225.33 33.3227 Q3222.17 32.4315 3218.93 32.4315 Q3211.68 32.4315 3207.67 37.0496 Q3203.66 41.6271 3203.66 49.9314 Q3203.66 58.2358 3207.67 62.8538 Q3211.68 67.4314 3218.93 67.4314 Q3222.17 67.4314 3225.33 66.5807 Q3228.53 65.6895 3231.69 63.9476 L3231.69 70.8341 Q3228.57 72.2924 3225.21 73.0216 Q3221.89 73.7508 3218.12 73.7508 Q3207.87 73.7508 3201.84 67.3098 Q3195.8 60.8689 3195.8 49.9314 Q3195.8 38.832 3201.88 32.472 Q3207.99 26.1121 3218.61 26.1121 Q3222.05 26.1121 3225.33 26.8413 Q3228.61 27.5299 3231.69 28.9478 Z" fill="#000000" fill-rule="nonzero" fill-opacity="1" /><path clip-path="url(#clip980)" d="M3273.58 28.5427 L3273.58 35.5912 Q3270.42 33.9709 3267.02 33.1607 Q3263.61 32.3505 3259.97 32.3505 Q3254.42 32.3505 3251.62 34.0519 Q3248.87 35.7533 3248.87 39.156 Q3248.87 41.7486 3250.85 43.2475 Q3252.84 44.7058 3258.83 46.0426 L3261.39 46.6097 Q3269.33 48.3111 3272.65 51.4303 Q3276.01 54.509 3276.01 60.0587 Q3276.01 66.3781 3270.99 70.0644 Q3266 73.7508 3257.25 73.7508 Q3253.61 73.7508 3249.64 73.0216 Q3245.71 72.3329 3241.33 70.9151 L3241.33 63.2184 Q3245.47 65.3654 3249.48 66.4591 Q3253.49 67.5124 3257.42 67.5124 Q3262.68 67.5124 3265.52 65.73 Q3268.35 63.9071 3268.35 60.6258 Q3268.35 57.5877 3266.29 55.9673 Q3264.26 54.3469 3257.33 52.8481 L3254.74 52.2405 Q3247.82 50.7821 3244.74 47.7845 Q3241.66 44.7463 3241.66 39.4801 Q3241.66 33.0797 3246.19 29.5959 Q3250.73 26.1121 3259.08 26.1121 Q3263.21 26.1121 3266.85 26.7198 Q3270.5 27.3274 3273.58 28.5427 Z" fill="#000000" fill-rule="nonzero" fill-opacity="1" /><polyline clip-path="url(#clip982)" style="stroke:#009af9; stroke-linecap:round; stroke-linejoin:round; stroke-width:8; stroke-opacity:1; fill:none" points="422.423,1360.47 429.43,2632.41 436.437,639.79 443.444,1927.26 450.451,786.45 457.458,2662.38 464.465,723.535 471.472,2640.9 478.479,659.856 485.486,2314.56 492.493,711.587 499.5,2638.72 506.507,649.094 513.514,2159.54 520.521,744.765 527.528,2650.91 534.535,679.342 541.542,2631.94 548.549,622.579 555.556,1881.96 562.563,791.918 569.57,2671.58 576.577,726.352 583.584,2648.17 590.591,661.439 597.598,2567.74 604.605,633.913 611.612,2186.9 618.619,734.398 625.626,2653.61 632.633,667.792 639.64,2634.84 646.647,613.174 653.654,1966.59 660.661,777.413 667.668,2672.33 674.675,707.569 681.682,2648.82 688.689,642.967 695.696,2429.06 702.703,672.123 709.71,2640.65 716.717,614.647 723.724,2052.89 730.731,762.529 737.738,2671.23 744.745,689.733 751.752,2648.15 758.759,626.372 765.766,2251.71 772.773,718.58 779.78,2658.45 786.787,648.425 793.794,2513.47 800.801,646.509 807.808,2462.8 814.815,663.412 821.822,2644.61 828.829,604.759 835.836,1982.16 842.843,777.839 849.85,2682.58 856.857,699.411 863.864,2655.82 870.871,630.034 877.879,2432.01 884.886,664.036 891.893,2646.29 898.9,603.53 905.907,2177.17 912.914,729.514 919.921,2665.82 926.928,653.667 933.935,2643.23 940.942,596.279 947.949,2271 954.956,698.433 961.963,2654.99 968.97,628.654 975.977,2635.53 982.984,580.905 989.991,2305.2 996.998,679.516 1004,2647.36 1011.01,615.558 1018.02,2629.66 1025.03,574.348 1032.03,2471.71 1039.04,615.883 1046.05,2627.25 1053.05,575.723 1060.06,2616.96 1067.07,554.623 1074.07,2513.76 1081.08,587.738 1088.09,2616.19 1095.1,564.092 1102.1,2611.05 1109.11,554.44 1116.12,2608.19 1123.12,550.157 1130.13,2606.31 1137.14,548.517 1144.14,2604.86 1151.15,548.149 1158.16,2603.58 1165.17,548.408 1172.17,2602.36 1179.18,548.997 1186.19,2601.14 1193.19,549.776 1200.2,2599.91 1207.21,550.681 1214.22,2598.66 1221.22,551.676 1228.23,2597.38 1235.24,552.744 1242.24,2596.09 1249.25,553.872 1256.26,2594.77 1263.26,555.051 1270.27,2593.44 1277.28,556.274 1284.29,2592.09 1291.29,557.534 1298.3,2590.73 1305.31,558.825 1312.31,2589.35 1319.32,560.141 1326.33,2587.96 1333.33,561.477 1340.34,2586.55 1347.35,562.827 1354.36,2585.12 1361.36,564.187 1368.37,2583.68 1375.38,565.553 1382.38,2582.22 1389.39,566.92 1396.4,2580.73 1403.4,568.284 1410.41,2579.22 1417.42,569.643 1424.43,2577.68 1431.43,570.993 1438.44,2576.11 1445.45,572.332 1452.45,2574.51 1459.46,573.656 1466.47,2572.87 1473.47,574.965 1480.48,2571.2 1487.49,576.257 1494.5,2569.48 1501.5,577.529 1508.51,2567.72 1515.52,578.782 1522.52,2565.91 1529.53,580.014 1536.54,2564.06 1543.54,581.225 1550.55,2562.16 1557.56,582.415 1564.57,2560.21 1571.57,583.584 1578.58,2558.21 1585.59,600.132 1592.59,2554.19 1599.6,808.578 1606.61,2521.73 1613.61,523.535 1620.62,2533.68 1627.63,573.627 1634.64,2536.15 1641.64,1070.85 1648.65,2461.4 1655.66,422.237 1662.66,2502.61 1669.67,509.634 1676.68,2518.57 1683.68,1249.18 1690.69,2409.37 1697.7,341.306 1704.71,2479.5 1711.71,483.809 1718.72,2502.69 1725.73,1475.19 1732.73,2176.58 1739.74,334.865 1746.75,2467.29 1753.75,518.596 1760.76,2486.73 1767.77,1727.86 1774.78,674.799 1781.78,2456.63 1788.79,972.525 1795.8,2405.34 1802.8,389.969 1809.81,2462.81 1816.82,1723.06 1823.83,698.271 1830.83,2439.24 1837.84,943.529 1844.85,2399.31 1851.85,385.101 1858.86,2459.86 1865.87,1996.8 1872.87,336.752 1879.88,2450.54 1886.89,1721.68 1893.9,699.03 1900.9,2428.68 1907.91,1003 1914.92,2378.21 1921.92,352.608 1928.93,2451.87 1935.94,2037.52 1942.94,302.297 1949.95,2443.75 1956.96,1748.81 1963.97,532.245 1970.97,2446.09 1977.98,1905.86 1984.99,353.048 1991.99,2451.89 1999,2157.16 2006.01,238.514 2013.01,2436.83 2020.02,1492.44 2027.03,2063.03 2034.04,295.219 2041.04,2444.64 2048.05,1636.16 2055.06,1209.1 2062.06,2343.47 2069.07,289.802 2076.08,2446.2 2083.08,1445.36 2090.09,2297.11 2097.1,205.086 2104.11,2440.27 2111.11,899.339 2118.12,2413 2125.13,407.391 2132.13,2470.55 2139.14,1951.98 2146.15,378.541 2153.15,2467.35 2160.16,1589.18 2167.17,1491.09 2174.18,2074.06 2181.18,350.885 2188.19,2467.4 2195.2,1023.14 2202.2,2417.2 2209.21,396.718 2216.22,2478.93 2223.22,1125.98 2230.23,2409.28 2237.24,372.744 2244.25,2479.29 2251.25,676.809 2258.26,2484.97 2265.27,747.869 2272.27,2479.61 2279.28,497.591 2286.29,2510.03 2293.29,1500.54 2300.3,2010.04 2307.31,439.717 2314.32,2501.82 2321.32,532.973 2328.33,2523.26 2335.34,1353.35 2342.34,2410.46 2349.35,327.314 2356.36,2493.69 2363.36,499.683 2370.37,2522.15 2377.38,554.712 2384.39,2537.3 2391.39,938.697 2398.4,2499.49 2405.41,497.735 2412.41,2527.37 2419.42,553.535 2426.43,2541.83 2433.44,580.526 2440.44,2550.5 2447.45,752.427 2454.46,2537.08 2461.46,562.783 2468.47,2548.6 2475.48,584.378 2482.48,2555.58 2489.49,596.254 2496.5,2560.08 2503.51,602.929 2510.51,2563.11 2517.52,606.569 2524.53,2565.24 2531.53,893.422 2538.54,2815.63 2545.55,668.719 2552.55,2766.26 2559.56,454.547 2566.57,2410.73 2573.58,697.398 2580.58,2546.02 2587.59,653.413 2594.6,2049.37 2601.6,872.756 2608.61,2813.05 2615.62,621.411 2622.62,1475.05 2629.63,2175.76 2636.64,865.868 2643.65,2813.09 2650.65,602.653 2657.66,990.515 2664.67,2861.74 2671.67,786.206 2678.68,1496.59 2685.69,2066.36 2692.69,931.227 2699.7,2838.3 2706.71,681.338 2713.72,1002.22 2720.72,2869.57 2727.73,795.26 2734.74,1020.79 2741.74,2879.58 2748.75,824.165 2755.76,1028.8 2762.76,2884.56 2769.77,834.452 2776.78,1033.12 2783.79,2887.73 2790.79,837.809 2797.8,1035.99 2804.81,2890.23 2811.81,838.124 2818.82,1038.33 2825.83,2892.53 2832.83,836.94 2839.84,1040.53 2846.85,2894.84 2853.86,834.896 2860.86,1042.78 2867.87,2897.25 2874.88,824.896 2881.88,1037.15 2888.89,2890.43 2895.9,809.277 2902.9,1031.52 2909.91,2886.5 2916.92,806.118 2923.93,1028.36 2930.93,2883.84 2937.94,807.513 2944.95,1026.17 2951.95,2881.69 2958.96,810.326 2965.97,1024.36 2972.97,2879.76 2979.98,813.458 2986.99,1022.72 2994,2877.91 3001,816.542 3008.01,1021.15 3015.02,2876.09 3022.02,819.467 3029.03,1019.59 3036.04,2874.26 3043.05,822.213 3050.05,1018.02 3057.06,2872.4 3064.07,824.793 3071.07,1016.43 3078.08,2870.5 3085.09,827.234 3092.09,1014.79 3099.1,2868.55 3106.11,829.564 3113.12,1013.11 3120.12,2866.54 3127.13,831.815 3134.14,1011.4 3141.14,2864.48 3148.15,834.017 3155.16,1009.68 3162.16,2862.38 3169.17,836.197 3176.18,1155.17 3183.19,2847.38 3190.19,794.257 3197.2,999.105 3204.21,2859.36 3211.21,825.103 3218.22,1306.68 3225.23,2832.09 3232.23,728.565 3239.24,989.201 3246.25,2857.88 3253.26,801.258 3260.26,1115.23 3267.27,2856.08 3274.28,786.452 3281.28,1053.5 3288.29,2863.38 3295.3,800.193 3302.3,1285.96 3309.31,2838.38 3316.32,711.501 3323.33,993.337 3330.33,2865.79 3337.34,790.808 3344.35,1294.25 3351.35,2839.51 3358.36,698.25 3365.37,994.526 3372.37,2869.16 3379.38,785.164 3386.39,1332.44 3393.4,2836.85 3400.4,672.751 3407.41,994.262 3414.42,2871.81 3421.42,777.503 3428.43,1320.08 3435.44,2841.51 3442.44,671.566 3449.45,997.756 3456.46,2876.37 3463.47,775.385 3470.47,1336.22 3477.48,2843.06 3484.49,658.942 3491.49,1000.2 3498.5,2880.46 3505.51,771.15 3512.51,1293.11 3519.52,2853.89 3526.53,676.235 3533.54,1006.79 3540.54,2886.65 3547.55,772.488 3554.56,1273.55 3561.56,2862.29 3568.57,683.933 3575.58,1012.56 3582.58,2892.45 3589.59,771.779 3596.6,1204.1 3603.61,2878.13 3610.61,715.459 3617.62,1021.99 3624.63,2900.01 3631.63,776.094 3638.64,1162.35 3645.65,2890.38 3652.66,734.74 3659.66,1029.9 3666.67,2906.66 3673.68,777.695 3680.68,1083.35 3687.69,2907.12 3694.7,769.43 3701.7,1040.55 3708.71,2914.45 3715.72,783.901 3722.73,1045.79 3729.73,2917.94 3736.74,786.368 3743.75,1047.8 3750.75,2920.16 3757.76,785.276 3764.77,1049.33 3771.77,2921.78 3778.78,782.853 3785.79,1050.42 3792.8,2923.05 3799.8,780.072 3806.81,1051.26 3813.82,2924.05 3820.82,777.313 3827.83,1051.89 3834.84,2924.81 3841.84,774.749 3848.85,1052.32 3855.86,2925.31 3862.87,772.474 3869.87,1052.54 3876.88,2925.57 3883.89,770.557 3890.89,1052.55 3897.9,2925.56 3904.91,769.045 3911.91,1052.36 3918.92,2925.3 3925.93,767.978 3932.94,1051.96 3939.94,2924.78 3946.95,767.379 3953.96,1051.37 3960.96,2924.03 3967.97,767.262 3974.98,1050.6 3981.98,2923.05 3988.99,767.628 3996,1049.67 4003.01,2921.87 4010.01,768.467 4017.02,1048.59 4024.03,2920.5 4031.03,769.759 4038.04,1047.41 4045.05,2918.98 4052.05,771.475 4059.06,1046.14 4066.07,2917.32 4073.08,773.581 4080.08,1044.81 4087.09,2915.56 4094.1,775.437 4101.1,1042.27 4108.11,2912.15 4115.12,775.493 4122.12,1039.35 4129.13,2909.01 4136.14,778.611 4143.15,1036.97 4150.15,2906.11 4157.16,782.751 4164.17,1034.83 4171.17,2903.3 4178.18,787.268 4185.19,1032.82 4192.19,2900.54 4199.2,791.939 4206.21,1030.93 4213.22,2897.83 4220.22,796.67 4227.23,1116.73 4234.24,2883.86 4241.24,765.732 4248.25,1019.65 4255.26,2888.55 4262.27,793.665 4269.27,1306.12 4276.28,2849.85 4283.29,682.123 4290.29,999.796 4297.3,2875.04 4304.31,777.066 4311.31,1253.92 4318.32,2848.49 4325.33,705.402 4332.34,997.522 4339.34,2870.35 4346.35,786.775 4353.36,1431.79 4360.36,2495.89 4367.37,797.093 4374.38,1546.16 4381.38,1832.31 4388.39,966.122 4395.4,2850.44 4402.41,756.538 4409.41,1315.33 4416.42,2822.33 4423.43,678.516 4430.43,981.251 4437.44,2854.03 4444.45,789.397 4451.45,1615.55 4458.46,1426.1 4465.47,2523.74 4472.48,776.129 4479.48,1514.67 4486.49,2010.97 4493.5,917.226 4500.5,2819.31 4507.51,715.235 4514.52,1018.44 4521.52,2840.04 4528.53,789.875 4535.54,1713.13 4542.55,967.036 4549.55,2837.12 4556.56,797.488 4563.57,1872.48 4570.57,940.518 4577.58,2826.99 4584.59,759.872 4591.59,1367.31 4598.6,2802.54 4605.61,673.808 4612.62,972.098 4619.62,2843.28 4626.63,799.145 4626.63,799.145 "/>
<polyline clip-path="url(#clip982)" style="stroke:#e26f46; stroke-linecap:round; stroke-linejoin:round; stroke-width:8; stroke-opacity:1; fill:none" stroke-dasharray="4, 8" points="-4160.16,1584.31 9209.22,1584.31 "/>
<path clip-path="url(#clip980)" d="M3251.11 375.116 L4604.21 375.116 L4604.21 219.596 L3251.11 219.596  Z" fill="#ffffff" fill-rule="evenodd" fill-opacity="1"/>
<polyline clip-path="url(#clip980)" style="stroke:#000000; stroke-linecap:round; stroke-linejoin:round; stroke-width:4; stroke-opacity:1; fill:none" points="3251.11,375.116 4604.21,375.116 4604.21,219.596 3251.11,219.596 3251.11,375.116 "/>
<polyline clip-path="url(#clip980)" style="stroke:#009af9; stroke-linecap:round; stroke-linejoin:round; stroke-width:8; stroke-opacity:1; fill:none" points="3300.63,271.436 3597.73,271.436 "/>
<path clip-path="url(#clip980)" d="M3669.49 255.29 L3669.49 259.85 Q3666.83 258.577 3664.46 257.952 Q3662.1 257.327 3659.9 257.327 Q3656.08 257.327 3654 258.808 Q3651.94 260.29 3651.94 263.021 Q3651.94 265.313 3653.31 266.494 Q3654.7 267.651 3658.54 268.369 L3661.36 268.947 Q3666.59 269.943 3669.07 272.466 Q3671.57 274.966 3671.57 279.179 Q3671.57 284.202 3668.19 286.794 Q3664.83 289.387 3658.33 289.387 Q3655.88 289.387 3653.1 288.831 Q3650.34 288.276 3647.38 287.188 L3647.38 282.373 Q3650.23 283.97 3652.96 284.781 Q3655.69 285.591 3658.33 285.591 Q3662.33 285.591 3664.51 284.017 Q3666.69 282.443 3666.69 279.526 Q3666.69 276.98 3665.11 275.544 Q3663.56 274.109 3660 273.392 L3657.15 272.836 Q3651.92 271.795 3649.58 269.572 Q3647.24 267.35 3647.24 263.392 Q3647.24 258.808 3650.46 256.17 Q3653.7 253.531 3659.37 253.531 Q3661.8 253.531 3664.33 253.971 Q3666.85 254.41 3669.49 255.29 Z" fill="#000000" fill-rule="nonzero" fill-opacity="1" /><path clip-path="url(#clip980)" d="M3678.24 278.484 L3678.24 262.79 L3682.5 262.79 L3682.5 278.322 Q3682.5 282.003 3683.93 283.855 Q3685.37 285.683 3688.24 285.683 Q3691.69 285.683 3693.68 283.484 Q3695.69 281.285 3695.69 277.489 L3695.69 262.79 L3699.95 262.79 L3699.95 288.716 L3695.69 288.716 L3695.69 284.734 Q3694.14 287.095 3692.08 288.253 Q3690.04 289.387 3687.33 289.387 Q3682.87 289.387 3680.55 286.609 Q3678.24 283.831 3678.24 278.484 M3688.95 262.165 L3688.95 262.165 Z" fill="#000000" fill-rule="nonzero" fill-opacity="1" /><path clip-path="url(#clip980)" d="M3712.84 284.827 L3712.84 298.577 L3708.56 298.577 L3708.56 262.79 L3712.84 262.79 L3712.84 266.725 Q3714.19 264.41 3716.22 263.299 Q3718.28 262.165 3721.13 262.165 Q3725.85 262.165 3728.79 265.915 Q3731.76 269.665 3731.76 275.776 Q3731.76 281.887 3728.79 285.637 Q3725.85 289.387 3721.13 289.387 Q3718.28 289.387 3716.22 288.276 Q3714.19 287.142 3712.84 284.827 M3727.33 275.776 Q3727.33 271.077 3725.39 268.415 Q3723.47 265.73 3720.09 265.73 Q3716.71 265.73 3714.76 268.415 Q3712.84 271.077 3712.84 275.776 Q3712.84 280.475 3714.76 283.16 Q3716.71 285.822 3720.09 285.822 Q3723.47 285.822 3725.39 283.16 Q3727.33 280.475 3727.33 275.776 Z" fill="#000000" fill-rule="nonzero" fill-opacity="1" /><path clip-path="url(#clip980)" d="M3742.94 284.827 L3742.94 298.577 L3738.65 298.577 L3738.65 262.79 L3742.94 262.79 L3742.94 266.725 Q3744.28 264.41 3746.32 263.299 Q3748.38 262.165 3751.22 262.165 Q3755.95 262.165 3758.89 265.915 Q3761.85 269.665 3761.85 275.776 Q3761.85 281.887 3758.89 285.637 Q3755.95 289.387 3751.22 289.387 Q3748.38 289.387 3746.32 288.276 Q3744.28 287.142 3742.94 284.827 M3757.43 275.776 Q3757.43 271.077 3755.48 268.415 Q3753.56 265.73 3750.18 265.73 Q3746.8 265.73 3744.86 268.415 Q3742.94 271.077 3742.94 275.776 Q3742.94 280.475 3744.86 283.16 Q3746.8 285.822 3750.18 285.822 Q3753.56 285.822 3755.48 283.16 Q3757.43 280.475 3757.43 275.776 Z" fill="#000000" fill-rule="nonzero" fill-opacity="1" /><path clip-path="url(#clip980)" d="M3768.91 252.697 L3773.17 252.697 L3773.17 288.716 L3768.91 288.716 L3768.91 252.697 Z" fill="#000000" fill-rule="nonzero" fill-opacity="1" /><path clip-path="url(#clip980)" d="M3792.87 291.123 Q3791.06 295.753 3789.35 297.165 Q3787.63 298.577 3784.76 298.577 L3781.36 298.577 L3781.36 295.012 L3783.86 295.012 Q3785.62 295.012 3786.59 294.179 Q3787.57 293.345 3788.75 290.243 L3789.51 288.299 L3779.02 262.79 L3783.54 262.79 L3791.64 283.068 L3799.74 262.79 L3804.26 262.79 L3792.87 291.123 Z" fill="#000000" fill-rule="nonzero" fill-opacity="1" /><path clip-path="url(#clip980)" d="M3823.05 273.832 L3835.53 273.832 L3835.53 277.628 L3823.05 277.628 L3823.05 273.832 Z" fill="#000000" fill-rule="nonzero" fill-opacity="1" /><path clip-path="url(#clip980)" d="M3857.38 252.697 L3861.64 252.697 L3861.64 288.716 L3857.38 288.716 L3857.38 252.697 Z" fill="#000000" fill-rule="nonzero" fill-opacity="1" /><path clip-path="url(#clip980)" d="M3880.6 265.776 Q3877.17 265.776 3875.18 268.461 Q3873.19 271.123 3873.19 275.776 Q3873.19 280.429 3875.16 283.114 Q3877.15 285.776 3880.6 285.776 Q3884 285.776 3885.99 283.091 Q3887.98 280.406 3887.98 275.776 Q3887.98 271.17 3885.99 268.484 Q3884 265.776 3880.6 265.776 M3880.6 262.165 Q3886.15 262.165 3889.32 265.776 Q3892.5 269.387 3892.5 275.776 Q3892.5 282.142 3889.32 285.776 Q3886.15 289.387 3880.6 289.387 Q3875.02 289.387 3871.85 285.776 Q3868.7 282.142 3868.7 275.776 Q3868.7 269.387 3871.85 265.776 Q3875.02 262.165 3880.6 262.165 Z" fill="#000000" fill-rule="nonzero" fill-opacity="1" /><path clip-path="url(#clip980)" d="M3911.34 275.683 Q3906.18 275.683 3904.19 276.864 Q3902.19 278.044 3902.19 280.892 Q3902.19 283.16 3903.68 284.503 Q3905.18 285.822 3907.75 285.822 Q3911.29 285.822 3913.42 283.322 Q3915.57 280.799 3915.57 276.632 L3915.57 275.683 L3911.34 275.683 M3919.83 273.924 L3919.83 288.716 L3915.57 288.716 L3915.57 284.781 Q3914.12 287.142 3911.94 288.276 Q3909.76 289.387 3906.62 289.387 Q3902.63 289.387 3900.27 287.165 Q3897.94 284.919 3897.94 281.169 Q3897.94 276.794 3900.85 274.572 Q3903.79 272.35 3909.6 272.35 L3915.57 272.35 L3915.57 271.933 Q3915.57 268.994 3913.63 267.396 Q3911.71 265.776 3908.21 265.776 Q3905.99 265.776 3903.88 266.308 Q3901.78 266.841 3899.83 267.906 L3899.83 263.97 Q3902.17 263.068 3904.37 262.628 Q3906.57 262.165 3908.65 262.165 Q3914.28 262.165 3917.06 265.082 Q3919.83 267.998 3919.83 273.924 Z" fill="#000000" fill-rule="nonzero" fill-opacity="1" /><path clip-path="url(#clip980)" d="M3945.67 266.725 L3945.67 252.697 L3949.93 252.697 L3949.93 288.716 L3945.67 288.716 L3945.67 284.827 Q3944.32 287.142 3942.26 288.276 Q3940.23 289.387 3937.36 289.387 Q3932.66 289.387 3929.69 285.637 Q3926.75 281.887 3926.75 275.776 Q3926.75 269.665 3929.69 265.915 Q3932.66 262.165 3937.36 262.165 Q3940.23 262.165 3942.26 263.299 Q3944.32 264.41 3945.67 266.725 M3931.15 275.776 Q3931.15 280.475 3933.07 283.16 Q3935.02 285.822 3938.4 285.822 Q3941.78 285.822 3943.72 283.16 Q3945.67 280.475 3945.67 275.776 Q3945.67 271.077 3943.72 268.415 Q3941.78 265.73 3938.4 265.73 Q3935.02 265.73 3933.07 268.415 Q3931.15 271.077 3931.15 275.776 Z" fill="#000000" fill-rule="nonzero" fill-opacity="1" /><path clip-path="url(#clip980)" d="M3992.43 263.785 L3992.43 267.767 Q3990.62 266.771 3988.79 266.285 Q3986.99 265.776 3985.13 265.776 Q3980.99 265.776 3978.7 268.415 Q3976.41 271.031 3976.41 275.776 Q3976.41 280.521 3978.7 283.16 Q3980.99 285.776 3985.13 285.776 Q3986.99 285.776 3988.79 285.29 Q3990.62 284.781 3992.43 283.785 L3992.43 287.72 Q3990.64 288.554 3988.72 288.97 Q3986.82 289.387 3984.67 289.387 Q3978.81 289.387 3975.37 285.706 Q3971.92 282.026 3971.92 275.776 Q3971.92 269.433 3975.39 265.799 Q3978.88 262.165 3984.95 262.165 Q3986.92 262.165 3988.79 262.582 Q3990.67 262.975 3992.43 263.785 Z" fill="#000000" fill-rule="nonzero" fill-opacity="1" /><path clip-path="url(#clip980)" d="M3999.39 278.484 L3999.39 262.79 L4003.65 262.79 L4003.65 278.322 Q4003.65 282.003 4005.09 283.855 Q4006.52 285.683 4009.39 285.683 Q4012.84 285.683 4014.83 283.484 Q4016.85 281.285 4016.85 277.489 L4016.85 262.79 L4021.11 262.79 L4021.11 288.716 L4016.85 288.716 L4016.85 284.734 Q4015.3 287.095 4013.24 288.253 Q4011.2 289.387 4008.49 289.387 Q4004.02 289.387 4001.71 286.609 Q3999.39 283.831 3999.39 278.484 M4010.11 262.165 L4010.11 262.165 Z" fill="#000000" fill-rule="nonzero" fill-opacity="1" /><path clip-path="url(#clip980)" d="M4044.9 266.771 Q4044.18 266.355 4043.33 266.17 Q4042.49 265.961 4041.48 265.961 Q4037.87 265.961 4035.92 268.322 Q4034 270.66 4034 275.058 L4034 288.716 L4029.72 288.716 L4029.72 262.79 L4034 262.79 L4034 266.818 Q4035.34 264.457 4037.49 263.322 Q4039.65 262.165 4042.73 262.165 Q4043.17 262.165 4043.7 262.234 Q4044.23 262.281 4044.88 262.396 L4044.9 266.771 Z" fill="#000000" fill-rule="nonzero" fill-opacity="1" /><path clip-path="url(#clip980)" d="M4063.56 266.771 Q4062.84 266.355 4061.99 266.17 Q4061.15 265.961 4060.13 265.961 Q4056.52 265.961 4054.58 268.322 Q4052.66 270.66 4052.66 275.058 L4052.66 288.716 L4048.37 288.716 L4048.37 262.79 L4052.66 262.79 L4052.66 266.818 Q4054 264.457 4056.15 263.322 Q4058.3 262.165 4061.38 262.165 Q4061.82 262.165 4062.36 262.234 Q4062.89 262.281 4063.54 262.396 L4063.56 266.771 Z" fill="#000000" fill-rule="nonzero" fill-opacity="1" /><path clip-path="url(#clip980)" d="M4089.16 274.688 L4089.16 276.771 L4069.58 276.771 Q4069.86 281.169 4072.22 283.484 Q4074.6 285.776 4078.84 285.776 Q4081.29 285.776 4083.58 285.174 Q4085.9 284.572 4088.17 283.369 L4088.17 287.396 Q4085.87 288.368 4083.47 288.878 Q4081.06 289.387 4078.58 289.387 Q4072.38 289.387 4068.74 285.776 Q4065.13 282.165 4065.13 276.007 Q4065.13 269.642 4068.56 265.915 Q4072.01 262.165 4077.84 262.165 Q4083.07 262.165 4086.11 265.545 Q4089.16 268.901 4089.16 274.688 M4084.9 273.438 Q4084.86 269.943 4082.93 267.859 Q4081.04 265.776 4077.89 265.776 Q4074.32 265.776 4072.17 267.79 Q4070.04 269.804 4069.72 273.461 L4084.9 273.438 Z" fill="#000000" fill-rule="nonzero" fill-opacity="1" /><path clip-path="url(#clip980)" d="M4117.7 273.068 L4117.7 288.716 L4113.44 288.716 L4113.44 273.207 Q4113.44 269.526 4112.01 267.697 Q4110.57 265.869 4107.7 265.869 Q4104.25 265.869 4102.26 268.068 Q4100.27 270.267 4100.27 274.063 L4100.27 288.716 L4095.99 288.716 L4095.99 262.79 L4100.27 262.79 L4100.27 266.818 Q4101.8 264.48 4103.86 263.322 Q4105.94 262.165 4108.65 262.165 Q4113.12 262.165 4115.41 264.943 Q4117.7 267.697 4117.7 273.068 Z" fill="#000000" fill-rule="nonzero" fill-opacity="1" /><path clip-path="url(#clip980)" d="M4130.41 255.429 L4130.41 262.79 L4139.18 262.79 L4139.18 266.1 L4130.41 266.1 L4130.41 280.174 Q4130.41 283.345 4131.27 284.248 Q4132.15 285.151 4134.81 285.151 L4139.18 285.151 L4139.18 288.716 L4134.81 288.716 Q4129.88 288.716 4128 286.887 Q4126.13 285.035 4126.13 280.174 L4126.13 266.1 L4123 266.1 L4123 262.79 L4126.13 262.79 L4126.13 255.429 L4130.41 255.429 Z" fill="#000000" fill-rule="nonzero" fill-opacity="1" /><path clip-path="url(#clip980)" d="M4170.09 252.744 Q4166.98 258.068 4165.48 263.276 Q4163.98 268.484 4163.98 273.832 Q4163.98 279.179 4165.48 284.433 Q4167.01 289.665 4170.09 294.966 L4166.38 294.966 Q4162.91 289.526 4161.17 284.271 Q4159.46 279.017 4159.46 273.832 Q4159.46 268.67 4161.17 263.438 Q4162.89 258.207 4166.38 252.744 L4170.09 252.744 Z" fill="#000000" fill-rule="nonzero" fill-opacity="1" /><path clip-path="url(#clip980)" d="M4196.96 275.776 Q4196.96 271.077 4195.02 268.415 Q4193.1 265.73 4189.72 265.73 Q4186.34 265.73 4184.39 268.415 Q4182.47 271.077 4182.47 275.776 Q4182.47 280.475 4184.39 283.16 Q4186.34 285.822 4189.72 285.822 Q4193.1 285.822 4195.02 283.16 Q4196.96 280.475 4196.96 275.776 M4182.47 266.725 Q4183.81 264.41 4185.85 263.299 Q4187.91 262.165 4190.76 262.165 Q4195.48 262.165 4198.42 265.915 Q4201.38 269.665 4201.38 275.776 Q4201.38 281.887 4198.42 285.637 Q4195.48 289.387 4190.76 289.387 Q4187.91 289.387 4185.85 288.276 Q4183.81 287.142 4182.47 284.827 L4182.47 288.716 L4178.19 288.716 L4178.19 252.697 L4182.47 252.697 L4182.47 266.725 Z" fill="#000000" fill-rule="nonzero" fill-opacity="1" /><path clip-path="url(#clip980)" d="M4230.62 274.688 L4230.62 276.771 L4211.04 276.771 Q4211.31 281.169 4213.67 283.484 Q4216.06 285.776 4220.29 285.776 Q4222.75 285.776 4225.04 285.174 Q4227.35 284.572 4229.62 283.369 L4229.62 287.396 Q4227.33 288.368 4224.92 288.878 Q4222.52 289.387 4220.04 289.387 Q4213.84 289.387 4210.2 285.776 Q4206.59 282.165 4206.59 276.007 Q4206.59 269.642 4210.02 265.915 Q4213.47 262.165 4219.3 262.165 Q4224.53 262.165 4227.56 265.545 Q4230.62 268.901 4230.62 274.688 M4226.36 273.438 Q4226.31 269.943 4224.39 267.859 Q4222.49 265.776 4219.35 265.776 Q4215.78 265.776 4213.63 267.79 Q4211.5 269.804 4211.17 273.461 L4226.36 273.438 Z" fill="#000000" fill-rule="nonzero" fill-opacity="1" /><path clip-path="url(#clip980)" d="M4250.73 252.697 L4250.73 256.239 L4246.66 256.239 Q4244.37 256.239 4243.47 257.165 Q4242.59 258.091 4242.59 260.498 L4242.59 262.79 L4249.6 262.79 L4249.6 266.1 L4242.59 266.1 L4242.59 288.716 L4238.3 288.716 L4238.3 266.1 L4234.23 266.1 L4234.23 262.79 L4238.3 262.79 L4238.3 260.984 Q4238.3 256.656 4240.32 254.688 Q4242.33 252.697 4246.71 252.697 L4250.73 252.697 Z" fill="#000000" fill-rule="nonzero" fill-opacity="1" /><path clip-path="url(#clip980)" d="M4264.35 265.776 Q4260.92 265.776 4258.93 268.461 Q4256.94 271.123 4256.94 275.776 Q4256.94 280.429 4258.91 283.114 Q4260.9 285.776 4264.35 285.776 Q4267.75 285.776 4269.74 283.091 Q4271.73 280.406 4271.73 275.776 Q4271.73 271.17 4269.74 268.484 Q4267.75 265.776 4264.35 265.776 M4264.35 262.165 Q4269.9 262.165 4273.07 265.776 Q4276.24 269.387 4276.24 275.776 Q4276.24 282.142 4273.07 285.776 Q4269.9 289.387 4264.35 289.387 Q4258.77 289.387 4255.6 285.776 Q4252.45 282.142 4252.45 275.776 Q4252.45 269.387 4255.6 265.776 Q4258.77 262.165 4264.35 262.165 Z" fill="#000000" fill-rule="nonzero" fill-opacity="1" /><path clip-path="url(#clip980)" d="M4298.33 266.771 Q4297.61 266.355 4296.75 266.17 Q4295.92 265.961 4294.9 265.961 Q4291.29 265.961 4289.35 268.322 Q4287.42 270.66 4287.42 275.058 L4287.42 288.716 L4283.14 288.716 L4283.14 262.79 L4287.42 262.79 L4287.42 266.818 Q4288.77 264.457 4290.92 263.322 Q4293.07 262.165 4296.15 262.165 Q4296.59 262.165 4297.12 262.234 Q4297.66 262.281 4298.3 262.396 L4298.33 266.771 Z" fill="#000000" fill-rule="nonzero" fill-opacity="1" /><path clip-path="url(#clip980)" d="M4323.93 274.688 L4323.93 276.771 L4304.35 276.771 Q4304.62 281.169 4306.98 283.484 Q4309.37 285.776 4313.6 285.776 Q4316.06 285.776 4318.35 285.174 Q4320.66 284.572 4322.93 283.369 L4322.93 287.396 Q4320.64 288.368 4318.23 288.878 Q4315.83 289.387 4313.35 289.387 Q4307.15 289.387 4303.51 285.776 Q4299.9 282.165 4299.9 276.007 Q4299.9 269.642 4303.33 265.915 Q4306.78 262.165 4312.61 262.165 Q4317.84 262.165 4320.87 265.545 Q4323.93 268.901 4323.93 274.688 M4319.67 273.438 Q4319.62 269.943 4317.7 267.859 Q4315.8 265.776 4312.66 265.776 Q4309.09 265.776 4306.94 267.79 Q4304.81 269.804 4304.48 273.461 L4319.67 273.438 Z" fill="#000000" fill-rule="nonzero" fill-opacity="1" /><path clip-path="url(#clip980)" d="M4364.6 275.776 Q4364.6 271.077 4362.66 268.415 Q4360.73 265.73 4357.35 265.73 Q4353.97 265.73 4352.03 268.415 Q4350.11 271.077 4350.11 275.776 Q4350.11 280.475 4352.03 283.16 Q4353.97 285.822 4357.35 285.822 Q4360.73 285.822 4362.66 283.16 Q4364.6 280.475 4364.6 275.776 M4350.11 266.725 Q4351.45 264.41 4353.49 263.299 Q4355.55 262.165 4358.4 262.165 Q4363.12 262.165 4366.06 265.915 Q4369.02 269.665 4369.02 275.776 Q4369.02 281.887 4366.06 285.637 Q4363.12 289.387 4358.4 289.387 Q4355.55 289.387 4353.49 288.276 Q4351.45 287.142 4350.11 284.827 L4350.11 288.716 L4345.83 288.716 L4345.83 252.697 L4350.11 252.697 L4350.11 266.725 Z" fill="#000000" fill-rule="nonzero" fill-opacity="1" /><path clip-path="url(#clip980)" d="M4375.64 278.484 L4375.64 262.79 L4379.9 262.79 L4379.9 278.322 Q4379.9 282.003 4381.34 283.855 Q4382.77 285.683 4385.64 285.683 Q4389.09 285.683 4391.08 283.484 Q4393.09 281.285 4393.09 277.489 L4393.09 262.79 L4397.35 262.79 L4397.35 288.716 L4393.09 288.716 L4393.09 284.734 Q4391.54 287.095 4389.48 288.253 Q4387.45 289.387 4384.74 289.387 Q4380.27 289.387 4377.96 286.609 Q4375.64 283.831 4375.64 278.484 M4386.36 262.165 L4386.36 262.165 Z" fill="#000000" fill-rule="nonzero" fill-opacity="1" /><path clip-path="url(#clip980)" d="M4422.65 263.554 L4422.65 267.582 Q4420.85 266.656 4418.9 266.193 Q4416.96 265.73 4414.88 265.73 Q4411.71 265.73 4410.11 266.702 Q4408.53 267.674 4408.53 269.619 Q4408.53 271.1 4409.67 271.957 Q4410.8 272.79 4414.23 273.554 L4415.69 273.878 Q4420.22 274.85 4422.12 276.632 Q4424.04 278.392 4424.04 281.563 Q4424.04 285.174 4421.17 287.281 Q4418.33 289.387 4413.33 289.387 Q4411.24 289.387 4408.97 288.97 Q4406.73 288.577 4404.23 287.767 L4404.23 283.369 Q4406.59 284.595 4408.88 285.22 Q4411.17 285.822 4413.42 285.822 Q4416.43 285.822 4418.05 284.804 Q4419.67 283.762 4419.67 281.887 Q4419.67 280.151 4418.49 279.225 Q4417.33 278.299 4413.37 277.443 L4411.89 277.095 Q4407.93 276.262 4406.17 274.549 Q4404.41 272.813 4404.41 269.804 Q4404.41 266.146 4407.01 264.156 Q4409.6 262.165 4414.37 262.165 Q4416.73 262.165 4418.81 262.512 Q4420.9 262.859 4422.65 263.554 Z" fill="#000000" fill-rule="nonzero" fill-opacity="1" /><path clip-path="url(#clip980)" d="M4445.9 252.697 L4450.15 252.697 L4450.15 288.716 L4445.9 288.716 L4445.9 252.697 Z" fill="#000000" fill-rule="nonzero" fill-opacity="1" /><path clip-path="url(#clip980)" d="M4481.24 274.688 L4481.24 276.771 L4461.66 276.771 Q4461.94 281.169 4464.3 283.484 Q4466.68 285.776 4470.92 285.776 Q4473.37 285.776 4475.66 285.174 Q4477.98 284.572 4480.25 283.369 L4480.25 287.396 Q4477.96 288.368 4475.55 288.878 Q4473.14 289.387 4470.66 289.387 Q4464.46 289.387 4460.83 285.776 Q4457.21 282.165 4457.21 276.007 Q4457.21 269.642 4460.64 265.915 Q4464.09 262.165 4469.92 262.165 Q4475.15 262.165 4478.19 265.545 Q4481.24 268.901 4481.24 274.688 M4476.98 273.438 Q4476.94 269.943 4475.02 267.859 Q4473.12 265.776 4469.97 265.776 Q4466.4 265.776 4464.25 267.79 Q4462.12 269.804 4461.8 273.461 L4476.98 273.438 Z" fill="#000000" fill-rule="nonzero" fill-opacity="1" /><path clip-path="url(#clip980)" d="M4500.02 275.683 Q4494.85 275.683 4492.86 276.864 Q4490.87 278.044 4490.87 280.892 Q4490.87 283.16 4492.35 284.503 Q4493.86 285.822 4496.43 285.822 Q4499.97 285.822 4502.1 283.322 Q4504.25 280.799 4504.25 276.632 L4504.25 275.683 L4500.02 275.683 M4508.51 273.924 L4508.51 288.716 L4504.25 288.716 L4504.25 284.781 Q4502.79 287.142 4500.62 288.276 Q4498.44 289.387 4495.29 289.387 Q4491.31 289.387 4488.95 287.165 Q4486.61 284.919 4486.61 281.169 Q4486.61 276.794 4489.53 274.572 Q4492.47 272.35 4498.28 272.35 L4504.25 272.35 L4504.25 271.933 Q4504.25 268.994 4502.31 267.396 Q4500.39 265.776 4496.89 265.776 Q4494.67 265.776 4492.56 266.308 Q4490.46 266.841 4488.51 267.906 L4488.51 263.97 Q4490.85 263.068 4493.05 262.628 Q4495.25 262.165 4497.33 262.165 Q4502.96 262.165 4505.73 265.082 Q4508.51 267.998 4508.51 273.924 Z" fill="#000000" fill-rule="nonzero" fill-opacity="1" /><path clip-path="url(#clip980)" d="M4517.12 252.697 L4521.4 252.697 L4521.4 273.97 L4534.11 262.79 L4539.55 262.79 L4525.8 274.919 L4540.13 288.716 L4534.58 288.716 L4521.4 276.054 L4521.4 288.716 L4517.12 288.716 L4517.12 252.697 Z" fill="#000000" fill-rule="nonzero" fill-opacity="1" /><path clip-path="url(#clip980)" d="M4544.07 252.744 L4547.77 252.744 Q4551.24 258.207 4552.95 263.438 Q4554.69 268.67 4554.69 273.832 Q4554.69 279.017 4552.95 284.271 Q4551.24 289.526 4547.77 294.966 L4544.07 294.966 Q4547.14 289.665 4548.65 284.433 Q4550.18 279.179 4550.18 273.832 Q4550.18 268.484 4548.65 263.276 Q4547.14 258.068 4544.07 252.744 Z" fill="#000000" fill-rule="nonzero" fill-opacity="1" /><polyline clip-path="url(#clip980)" style="stroke:#e26f46; stroke-linecap:round; stroke-linejoin:round; stroke-width:8; stroke-opacity:1; fill:none" stroke-dasharray="4, 8" points="3300.63,323.276 3597.73,323.276 "/>
<path clip-path="url(#clip980)" d="M3647.77 305.996 L3674.93 305.996 L3674.93 309.561 L3653.08 336.621 L3675.46 336.621 L3675.46 340.556 L3647.24 340.556 L3647.24 336.991 L3669.09 309.931 L3647.77 309.931 L3647.77 305.996 Z" fill="#000000" fill-rule="nonzero" fill-opacity="1" /><path clip-path="url(#clip980)" d="M3704.23 326.528 L3704.23 328.611 L3684.65 328.611 Q3684.93 333.009 3687.29 335.324 Q3689.67 337.616 3693.91 337.616 Q3696.36 337.616 3698.65 337.014 Q3700.97 336.412 3703.24 335.209 L3703.24 339.236 Q3700.95 340.208 3698.54 340.718 Q3696.13 341.227 3693.65 341.227 Q3687.45 341.227 3683.82 337.616 Q3680.2 334.005 3680.2 327.847 Q3680.2 321.482 3683.63 317.755 Q3687.08 314.005 3692.91 314.005 Q3698.14 314.005 3701.18 317.385 Q3704.23 320.741 3704.23 326.528 M3699.97 325.278 Q3699.93 321.783 3698.01 319.699 Q3696.11 317.616 3692.96 317.616 Q3689.39 317.616 3687.24 319.63 Q3685.11 321.644 3684.79 325.301 L3699.97 325.278 Z" fill="#000000" fill-rule="nonzero" fill-opacity="1" /><path clip-path="url(#clip980)" d="M3726.25 318.611 Q3725.53 318.195 3724.67 318.01 Q3723.84 317.801 3722.82 317.801 Q3719.21 317.801 3717.26 320.162 Q3715.34 322.5 3715.34 326.898 L3715.34 340.556 L3711.06 340.556 L3711.06 314.63 L3715.34 314.63 L3715.34 318.658 Q3716.69 316.297 3718.84 315.162 Q3720.99 314.005 3724.07 314.005 Q3724.51 314.005 3725.04 314.074 Q3725.58 314.121 3726.22 314.236 L3726.25 318.611 Z" fill="#000000" fill-rule="nonzero" fill-opacity="1" /><path clip-path="url(#clip980)" d="M3739.72 317.616 Q3736.29 317.616 3734.3 320.301 Q3732.31 322.963 3732.31 327.616 Q3732.31 332.269 3734.28 334.954 Q3736.27 337.616 3739.72 337.616 Q3743.12 337.616 3745.11 334.931 Q3747.1 332.246 3747.1 327.616 Q3747.1 323.01 3745.11 320.324 Q3743.12 317.616 3739.72 317.616 M3739.72 314.005 Q3745.27 314.005 3748.45 317.616 Q3751.62 321.227 3751.62 327.616 Q3751.62 333.982 3748.45 337.616 Q3745.27 341.227 3739.72 341.227 Q3734.14 341.227 3730.97 337.616 Q3727.82 333.982 3727.82 327.616 Q3727.82 321.227 3730.97 317.616 Q3734.14 314.005 3739.72 314.005 Z" fill="#000000" fill-rule="nonzero" fill-opacity="1" /><path clip-path="url(#clip980)" d="M3792.36 327.616 Q3792.36 322.917 3790.41 320.255 Q3788.49 317.57 3785.11 317.57 Q3781.73 317.57 3779.79 320.255 Q3777.87 322.917 3777.87 327.616 Q3777.87 332.315 3779.79 335 Q3781.73 337.662 3785.11 337.662 Q3788.49 337.662 3790.41 335 Q3792.36 332.315 3792.36 327.616 M3777.87 318.565 Q3779.21 316.25 3781.25 315.139 Q3783.31 314.005 3786.15 314.005 Q3790.88 314.005 3793.82 317.755 Q3796.78 321.505 3796.78 327.616 Q3796.78 333.727 3793.82 337.477 Q3790.88 341.227 3786.15 341.227 Q3783.31 341.227 3781.25 340.116 Q3779.21 338.982 3777.87 336.667 L3777.87 340.556 L3773.58 340.556 L3773.58 304.537 L3777.87 304.537 L3777.87 318.565 Z" fill="#000000" fill-rule="nonzero" fill-opacity="1" /><path clip-path="url(#clip980)" d="M3815.62 327.523 Q3810.46 327.523 3808.47 328.704 Q3806.48 329.884 3806.48 332.732 Q3806.48 335 3807.96 336.343 Q3809.46 337.662 3812.03 337.662 Q3815.57 337.662 3817.7 335.162 Q3819.86 332.639 3819.86 328.472 L3819.86 327.523 L3815.62 327.523 M3824.12 325.764 L3824.12 340.556 L3819.86 340.556 L3819.86 336.621 Q3818.4 338.982 3816.22 340.116 Q3814.05 341.227 3810.9 341.227 Q3806.92 341.227 3804.56 339.005 Q3802.22 336.759 3802.22 333.009 Q3802.22 328.634 3805.13 326.412 Q3808.07 324.19 3813.88 324.19 L3819.86 324.19 L3819.86 323.773 Q3819.86 320.834 3817.91 319.236 Q3815.99 317.616 3812.5 317.616 Q3810.27 317.616 3808.17 318.148 Q3806.06 318.681 3804.12 319.746 L3804.12 315.81 Q3806.45 314.908 3808.65 314.468 Q3810.85 314.005 3812.94 314.005 Q3818.56 314.005 3821.34 316.922 Q3824.12 319.838 3824.12 325.764 Z" fill="#000000" fill-rule="nonzero" fill-opacity="1" /><path clip-path="url(#clip980)" d="M3832.89 304.537 L3837.15 304.537 L3837.15 340.556 L3832.89 340.556 L3832.89 304.537 Z" fill="#000000" fill-rule="nonzero" fill-opacity="1" /><path clip-path="url(#clip980)" d="M3857.84 327.523 Q3852.68 327.523 3850.69 328.704 Q3848.7 329.884 3848.7 332.732 Q3848.7 335 3850.18 336.343 Q3851.69 337.662 3854.25 337.662 Q3857.8 337.662 3859.93 335.162 Q3862.08 332.639 3862.08 328.472 L3862.08 327.523 L3857.84 327.523 M3866.34 325.764 L3866.34 340.556 L3862.08 340.556 L3862.08 336.621 Q3860.62 338.982 3858.44 340.116 Q3856.27 341.227 3853.12 341.227 Q3849.14 341.227 3846.78 339.005 Q3844.44 336.759 3844.44 333.009 Q3844.44 328.634 3847.36 326.412 Q3850.3 324.19 3856.11 324.19 L3862.08 324.19 L3862.08 323.773 Q3862.08 320.834 3860.13 319.236 Q3858.21 317.616 3854.72 317.616 Q3852.5 317.616 3850.39 318.148 Q3848.28 318.681 3846.34 319.746 L3846.34 315.81 Q3848.68 314.908 3850.88 314.468 Q3853.07 314.005 3855.16 314.005 Q3860.78 314.005 3863.56 316.922 Q3866.34 319.838 3866.34 325.764 Z" fill="#000000" fill-rule="nonzero" fill-opacity="1" /><path clip-path="url(#clip980)" d="M3896.66 324.908 L3896.66 340.556 L3892.4 340.556 L3892.4 325.047 Q3892.4 321.366 3890.97 319.537 Q3889.53 317.709 3886.66 317.709 Q3883.21 317.709 3881.22 319.908 Q3879.23 322.107 3879.23 325.903 L3879.23 340.556 L3874.95 340.556 L3874.95 314.63 L3879.23 314.63 L3879.23 318.658 Q3880.76 316.32 3882.82 315.162 Q3884.9 314.005 3887.61 314.005 Q3892.08 314.005 3894.37 316.783 Q3896.66 319.537 3896.66 324.908 Z" fill="#000000" fill-rule="nonzero" fill-opacity="1" /><path clip-path="url(#clip980)" d="M3923.81 315.625 L3923.81 319.607 Q3922.01 318.611 3920.18 318.125 Q3918.38 317.616 3916.52 317.616 Q3912.38 317.616 3910.09 320.255 Q3907.8 322.871 3907.8 327.616 Q3907.8 332.361 3910.09 335 Q3912.38 337.616 3916.52 337.616 Q3918.38 337.616 3920.18 337.13 Q3922.01 336.621 3923.81 335.625 L3923.81 339.56 Q3922.03 340.394 3920.11 340.81 Q3918.21 341.227 3916.06 341.227 Q3910.2 341.227 3906.75 337.546 Q3903.31 333.866 3903.31 327.616 Q3903.31 321.273 3906.78 317.639 Q3910.27 314.005 3916.34 314.005 Q3918.31 314.005 3920.18 314.422 Q3922.06 314.815 3923.81 315.625 Z" fill="#000000" fill-rule="nonzero" fill-opacity="1" /><path clip-path="url(#clip980)" d="M3953.4 326.528 L3953.4 328.611 L3933.81 328.611 Q3934.09 333.009 3936.45 335.324 Q3938.84 337.616 3943.07 337.616 Q3945.53 337.616 3947.82 337.014 Q3950.13 336.412 3952.4 335.209 L3952.4 339.236 Q3950.11 340.208 3947.7 340.718 Q3945.3 341.227 3942.82 341.227 Q3936.62 341.227 3932.98 337.616 Q3929.37 334.005 3929.37 327.847 Q3929.37 321.482 3932.8 317.755 Q3936.25 314.005 3942.08 314.005 Q3947.31 314.005 3950.34 317.385 Q3953.4 320.741 3953.4 326.528 M3949.14 325.278 Q3949.09 321.783 3947.17 319.699 Q3945.27 317.616 3942.12 317.616 Q3938.56 317.616 3936.41 319.63 Q3934.28 321.644 3933.95 325.301 L3949.14 325.278 Z" fill="#000000" fill-rule="nonzero" fill-opacity="1" /></svg>
